<svg xmlns="http://www.w3.org/2000/svg" width="720" height="912" fill="none">
  <mask id="a" width="720" height="912" x="0" y="0" mask-type="alpha" maskUnits="userSpaceOnUse">
    <path fill="#000" d="M0 0h720v912H0z"/>
  </mask>
  <g mask="url(#a)">
    <path fill="#000" d="M0 0h720v912H0z"/>
    <path fill="#24262B" fill-rule="evenodd" d="M612.24 311l-10.4-6-58.88-34-10.4-6-58.89-34-10.39-6-58.89-34-10.39-6L193.09 69v.01l-.02-.01L-137 640.7l.53.3-.53.93 622.98 359.68.04-.08.04.02 126.56-219.21 4-6.93 200-346.41-6.93-4-58.89-34-10.39-6-58.89-34-10.4-6-58.88-34zm124.17 80.93l-58.89-34-76 131.63 58.89 34 76-131.63zm-80 138.56l-58.89-34-116 200.92 58.89 34 116-200.92zm-105.6 206.92l116-200.92 58.88 34-116 200.92-58.89-34zm-14.4.93l-58.89-34-122.6 212.36 58.88 34 122.61-212.36zM424.2 956.7l122.6-212.36 58.9 34L483.08 990.7l-58.9-34zm246.6-427.14l76-131.63 58.9 34-76 131.63-58.9-34zm-72.95-217.63l-58.9-34-76 131.63 58.9 34 76-131.63zm-65.61 137.63l76-131.63 58.89 34-76 131.63-58.9-34zm-14.4.93l-58.88-34-76 131.64 58.89 34 76-131.64zm-65.6 137.64l76-131.64 58.89 34-76 131.64-58.9-34zm-14.4.93l-58.88-34-162.6 281.64 58.88 34 162.6-281.64zM285.65 876.7l162.6-281.64 58.89 34-36 62.35-4 6.93-122.6 212.36-58.9-34zm-349.9-202l-58.88-34 162.6-281.65 58.9 34-162.61 281.64zm166.61-288.58l-58.89-34 76-131.63 58.9 34-76 131.63zm80-138.56l-58.89-34 76-131.64 58.9 34-76 131.64zm276.93-15.63l-58.89-34-76 131.63 58.9 34 76-131.63zm-65.6 137.63l76-131.63 58.88 34-76 131.63-58.89-34zm-14.4.93l-58.89-34-76 131.64 58.9 34 76-131.64zm-65.6 137.64l76-131.64 58.88 34-76 131.64-58.89-34zm-14.4.93l-58.89-34-65.86 114.07 58.89 34 65.86-114.07zm-55.47 120.07l65.86-114.07 58.9 34-65.87 114.08-58.89-34zm-14.4.93l-58.88-34L77.79 756.7l58.89 34 92.74-160.64zM147.08 796.7l92.74-160.64 58.9 34-92.75 160.64-58.9-34zm121.68-674.78l-76 131.64 105.5 60.91 76-131.64-105.5-60.9zm-80 138.57l-76 131.63 45.44 26.24 76-131.63-45.44-26.24zm55.84 32.24l-76 131.63 49.66 28.68 76-131.64-49.66-28.67zm-30.34 167.23l-49.66-28.67-65.87 114.08 49.67 28.67 65.86-114.08zm-125.92 79.4L154.2 425.3l-45.44-26.24-65.87 114.08 45.45 26.24zm-49.45-19.3l45.45 26.24L-8.4 706.93l-45.45-26.24 92.74-160.63zM1.98 712.93L94.72 552.3l49.67 28.67L51.64 741.6 1.98 712.93zm60.06 34.67l92.74-160.63 5.36 3.1L67.39 750.7l-5.35-3.1zm96.74-167.56l5.36 3.1L230 469.06l-5.36-3.1-65.86 114.08zM234 462.13l-5.36-3.1 76-131.63 5.36 3.1-76 131.63zm74.64-141.66l5.36 3.1 76-131.64-5.36-3.1-76 131.64z" clip-rule="evenodd"/>
  </g>
  <path stroke="#FF4C00" stroke-width="6" d="M525 450l-69-41-79.5 138.5L2 332"/>
  <path fill="url(#paint0_linear)" d="M0 0h720v912H0z"/>
  <path fill="#FF4C00" fill-rule="evenodd" d="M525 469a18 18 0 100-36 18 18 0 000 36z" clip-rule="evenodd" opacity=".2"/>
  <path fill="#FF4C00" fill-rule="evenodd" d="M525 458.07a7.07 7.07 0 100-14.14 7.07 7.07 0 000 14.14z" clip-rule="evenodd"/>
  <defs>
    <linearGradient id="paint0_linear" x1="0" x2="720" y1="456" y2="456" gradientUnits="userSpaceOnUse">
      <stop/>
      <stop offset="1" stop-opacity="0"/>
    </linearGradient>
  </defs>
</svg>
