<svg class="footer_socialMediaIcon__2n2Pr" focusable="false" xmlns="http://www.w3.org/2000/svg" fill="none" role="img" aria-label="Instagram logo" width="24" height="24" viewBox="0 0 24 24"><title>Instagram logo</title><path fill-rule="evenodd" clip-rule="evenodd" d="M7.8 2h8.4C19.4 2 22 4.6 22 7.8v8.4c0 3.2-2.6 5.8-5.8 5.8H7.8A5.8 5.8 0 012 16.2V7.8C2 4.6 4.6 2 7.8 2zm-.2 2A3.6 3.6 0 004 7.6v8.8A3.6 3.6 0 007.6 20h8.8a3.6 3.6 0 003.6-3.6V7.6A3.6 3.6 0 0016.4 4H7.6zm10.9 2.75a1.25 1.25 0 10-2.5 0 1.25 1.25 0 002.5 0zM12 7a5 5 0 110 10 5 5 0 010-10zm-3 5a3 3 0 116 0 3 3 0 01-6 0z" fill="#97999E"></path></svg>