<svg xmlns="http://www.w3.org/2000/svg" version="1.1" xmlns:xlink="http://www.w3.org/1999/xlink" xmlns:svgjs="http://svgjs.dev/svgjs" viewBox="0 0 10.501173632812502 10.58343833715818"><g transform="matrix(0.8571428571428571,0,0,0.8571428571428571,1.5001676618303579,7.943394625017417)"><rect width="12.33363394262693" height="12.33363394262693" x="-1.791327957641589" y="-9.26043833715818" fill="#dce2e3"></rect><g clip-path="url(#SvgjsClipPath31588)"><g clip-path="url(#SvgjsClipPath315838ca0bbd9-7f2d-4c44-b78a-7c7406d45b49)"><path d=" M 7.214455695490997 -4.051937787123001 C 7.219783336460866 -4.061927113941506 7.2251109774307345 -4.071916440760011 7.22977266327937 -4.082571722699749 C 7.375616834829543 -4.4122195077104145 7.263070419341053 -4.781824599995099 6.978041627453045 -4.907690117908262 C 6.693012835565035 -5.0335556358214255 6.344052352038595 -4.868398765755476 6.198208180488422 -4.538750980744811 C 6.179561437093879 -4.49679580810709 6.165576379547973 -4.454840635469369 6.154921097608234 -4.4122195077104145 L 7.214455695490997 -4.051937787123001 Z" fill="#404040" transform="matrix(1,0,0,1,0,0)" fill-rule="nonzero"></path></g><g clip-path="url(#SvgjsClipPath315838ca0bbd9-7f2d-4c44-b78a-7c7406d45b49)"><path d=" M 6.0743405279389595 -4.440189622802228 C 6.079002213787595 -4.450178949620733 6.084329854757465 -4.459502321318005 6.0889915406061 -4.4694916481365095 C 6.234835712156272 -4.799139433147174 6.122289296667782 -5.168744525431859 5.837260504779774 -5.294610043345022 C 5.552231712891764 -5.4204755612581845 5.203271229365324 -5.255318691192235 5.057427057815149 -4.925670906181571 C 5.039446269541841 -4.8843816886650835 5.0247952568747 -4.842426516027363 5.014805930056195 -4.801137298510875 L 6.075006483060193 -4.440189622802228 Z" fill="#404040" transform="matrix(1,0,0,1,0,0)" fill-rule="nonzero"></path></g><g clip-path="url(#SvgjsClipPath315838ca0bbd9-7f2d-4c44-b78a-7c7406d45b49)"><path d=" M 4.933559405265688 -4.828441458481455 C 4.938221091114324 -4.837764830178727 4.942882776962961 -4.846422246754765 4.947544462811596 -4.85641157357327 C 5.093388634361768 -5.186059358583934 4.9808422188732795 -5.555664450868619 4.69581342698527 -5.681529968781783 C 4.41078463509726 -5.807395486694945 4.0618241515708196 -5.642238616628996 3.915979980020646 -5.312590831618332 C 3.8979991917473367 -5.271967569223078 3.8840141342014305 -5.23067835170659 3.8740248073829244 -5.189389134190103 L 4.934225360386922 -4.828441458481455 Z" fill="#404040" transform="matrix(1,0,0,1,0,0)" fill-rule="nonzero"></path></g><g clip-path="url(#SvgjsClipPath315838ca0bbd9-7f2d-4c44-b78a-7c7406d45b49)"><path d=" M 1.9034636036525068 -1.7870244198073015 C 1.4792501914266611 -1.7870244198073015 1.1349513937488558 -1.4427256221294957 1.1349513937488558 -1.0185122099036512 C 1.1349513937488558 -0.5942987976778049 1.4792501914266611 -0.25 1.9034636036525068 -0.25 C 2.3276770158783515 -0.25 2.6719758135561578 -0.5942987976778049 2.6719758135561578 -1.0185122099036512 C 2.6719758135561578 -1.4427256221294957 2.3276770158783515 -1.7870244198073015 1.9034636036525068 -1.7870244198073015 Z M 1.9034636036525068 -0.6921942004991548 C 1.722989765798183 -0.6921942004991548 1.5771455942480102 -0.8387043271705599 1.5771455942480102 -1.0185122099036512 C 1.5771455942480102 -1.1983200926367399 1.7236557209194168 -1.3448302193081476 1.9034636036525068 -1.3448302193081476 C 2.0832714863855966 -1.3448302193081476 2.2297816130570034 -1.1983200926367399 2.2297816130570034 -1.0185122099036512 C 2.2297816130570034 -0.8387043271705599 2.0832714863855966 -0.6921942004991548 1.9034636036525068 -0.6921942004991548 Z" fill="#404040" transform="matrix(1,0,0,1,0,0)" fill-rule="nonzero"></path></g><g clip-path="url(#SvgjsClipPath315838ca0bbd9-7f2d-4c44-b78a-7c7406d45b49)"><path d=" M 4.211664053848395 -1.7870244198073015 C 3.787450641622549 -1.7870244198073015 3.4431518439447433 -1.4427256221294957 3.4431518439447433 -1.0185122099036512 C 3.4431518439447433 -0.5942987976778049 3.787450641622549 -0.25 4.211664053848395 -0.25 C 4.6358774660742395 -0.25 4.980176263752044 -0.5942987976778049 4.980176263752044 -1.0185122099036512 C 4.980176263752044 -1.4427256221294957 4.6358774660742395 -1.7870244198073015 4.211664053848393 -1.7870244198073015 Z M 4.211664053848395 -0.6921942004991548 C 4.031190215994071 -0.6921942004991548 3.8853460444438976 -0.8387043271705599 3.8853460444438976 -1.0185122099036512 C 3.8853460444438976 -1.1983200926367399 4.0318561711153045 -1.3448302193081476 4.211664053848395 -1.3448302193081476 C 4.391471936581484 -1.3448302193081476 4.53798206325289 -1.1983200926367399 4.53798206325289 -1.0185122099036512 C 4.53798206325289 -0.8387043271705599 4.391471936581484 -0.6921942004991548 4.211664053848395 -0.6921942004991548 Z" fill="#404040" transform="matrix(1,0,0,1,0,0)" fill-rule="nonzero"></path></g><g clip-path="url(#SvgjsClipPath315838ca0bbd9-7f2d-4c44-b78a-7c7406d45b49)"><path d=" M 8.14879073058183 -3.4459186268003643 L 3.1907548529971836 -5.132782948885241 L 3.5683514067366726 -2.9870755482703686 L 6.816214532993262 -1.8636092587491726 L 8.14879073058183 -3.4459186268003643 Z" fill="#bab9b4" transform="matrix(1,0,0,1,0,0)" fill-rule="nonzero"></path></g><g clip-path="url(#SvgjsClipPath315838ca0bbd9-7f2d-4c44-b78a-7c7406d45b49)"><path d=" M 4.93022962965952 -1.803007342716909 C 4.996159186661654 -1.7424054266846456 5.055429192451449 -1.6738120491975783 5.104043916301508 -1.598559120498174 C 5.153324595272798 -1.6738120491975783 5.211262690820128 -1.7424054266846456 5.27719224782226 -1.803007342716909 L 4.93022962965952 -1.803007342716909 Z" fill="#bab9b4" transform="matrix(1,0,0,1,0,0)" fill-rule="nonzero"></path></g><g clip-path="url(#SvgjsClipPath315838ca0bbd9-7f2d-4c44-b78a-7c7406d45b49)"><path d=" M 5.995091868512153 -1.7870244198073015 C 5.570878456286307 -1.7870244198073015 5.226579658608502 -1.4427256221294957 5.226579658608502 -1.0185122099036512 C 5.226579658608502 -0.5942987976778049 5.570878456286309 -0.25 5.995091868512153 -0.25 C 6.419305280737998 -0.25 6.763604078415803 -0.5942987976778049 6.763604078415803 -1.0185122099036512 C 6.763604078415803 -1.4427256221294957 6.419305280737998 -1.7870244198073015 5.995091868512153 -1.7870244198073015 Z M 5.995091868512153 -0.6921942004991548 C 5.8146180306578295 -0.6921942004991548 5.668773859107656 -0.8387043271705599 5.668773859107656 -1.0185122099036512 C 5.668773859107656 -1.1983200926367399 5.815283985779063 -1.3448302193081476 5.995091868512153 -1.3448302193081476 C 6.174899751245244 -1.3448302193081476 6.3214098779166505 -1.1983200926367399 6.3214098779166505 -1.0185122099036512 C 6.3214098779166505 -0.8387043271705599 6.174899751245244 -0.6921942004991548 5.995091868512153 -0.6921942004991548 Z" fill="#404040" transform="matrix(1,0,0,1,0,0)" fill-rule="nonzero"></path></g><g clip-path="url(#SvgjsClipPath315838ca0bbd9-7f2d-4c44-b78a-7c7406d45b49)"><path d=" M 2.3822066621979454 -6.44073878862257 L 2.9924320592040727 -5.776891149984022 C 3.034994920459033 -5.730588169025787 3.0319629549930727 -5.658548184728465 2.9856599740348377 -5.615985323473504 L 2.9856599740348377 -5.615985323473505 C 2.939356993076603 -5.573422462218544 2.8673170087792816 -5.576454427684506 2.8247541475243207 -5.62275740864274 L 2.214528750518194 -6.286605047281289 C 2.171965889263233 -6.332908028239523 2.1749978547291944 -6.404948012536845 2.221300835687429 -6.447510873791805 L 2.221300835687429 -6.447510873791805 C 2.2676038166456634 -6.490073735046766 2.339643800942985 -6.487041769580806 2.3822066621979454 -6.44073878862257 Z" fill="#bab9b4" transform="matrix(1,0,0,1,0,0)" fill-rule="nonzero"></path></g><g clip-path="url(#SvgjsClipPath315838ca0bbd9-7f2d-4c44-b78a-7c7406d45b49)"><path d=" M 3.840582033795169 -7.313206532667956 L 4.087792161214472 -6.26580115425384 C 4.102239375124334 -6.204589707496959 4.0643294817831634 -6.143256257088506 4.003118035026283 -6.128809043178644 L 4.003118035026283 -6.128809043178644 C 3.9419065882694033 -6.114361829268783 3.8805731378609503 -6.152271722609953 3.8661259239510892 -6.2134831693668335 L 3.618915796531785 -7.26088854778095 C 3.604468582621923 -7.3220999945378304 3.6423784759630937 -7.3834334449462835 3.703589922719974 -7.397880658856145 L 3.703589922719974 -7.397880658856145 C 3.764801369476854 -7.412327872766007 3.826134819885307 -7.374417979424837 3.840582033795169 -7.313206532667956 Z" fill="#bab9b4" transform="matrix(1,0,0,1,0,0)" fill-rule="nonzero"></path></g><g clip-path="url(#SvgjsClipPath315838ca0bbd9-7f2d-4c44-b78a-7c7406d45b49)"><path d=" M 5.518627895854097 -7.377273138722979 L 5.328878955708294 -6.257786672156311 C 5.318368678357311 -6.195777823805185 5.259580323386205 -6.15402999186224 5.197571475035078 -6.164540269213223 L 5.197571475035078 -6.164540269213223 C 5.135562626683951 -6.175050546564207 5.0938147947410055 -6.233838901535311 5.104325072091989 -6.295847749886438 L 5.294074012237793 -7.415334216453105 C 5.304584289588776 -7.4773430648042325 5.363372644559881 -7.519090896747178 5.425381492911008 -7.508580619396194 L 5.425381492911008 -7.508580619396194 C 5.4873903412621345 -7.498070342045211 5.529138173205082 -7.439281987074106 5.518627895854097 -7.377273138722979 Z" fill="#bab9b4" transform="matrix(1,0,0,1,0,0)" fill-rule="nonzero"></path></g><g clip-path="url(#SvgjsClipPath315838ca0bbd9-7f2d-4c44-b78a-7c7406d45b49)"><path d=" M 6.976653551389962 -6.616738898718134 L 6.323275517429412 -5.688109934141741 C 6.287084620412074 -5.636672766870319 6.216048053176014 -5.624313225314838 6.164610885904592 -5.660504122332176 L 6.164610885904592 -5.660504122332176 C 6.1131737186331705 -5.696695019349513 6.100814177077689 -5.767731586585573 6.137005074095027 -5.819168753856994 L 6.790383108055577 -6.747797718433389 C 6.826574005072914 -6.799234885704808 6.897610572308976 -6.811594427260291 6.949047739580397 -6.7754035302429525 L 6.949047739580397 -6.7754035302429525 C 7.000484906851817 -6.739212633225615 7.0128444484073 -6.668176065989554 6.976653551389962 -6.616738898718134 Z" fill="#bab9b4" transform="matrix(1,0,0,1,0,0)" fill-rule="nonzero"></path></g><g clip-path="url(#SvgjsClipPath315838ca0bbd9-7f2d-4c44-b78a-7c7406d45b49)"><path d=" M 8.112365645333853 -5.657049164003657 L 7.315626521130129 -5.155121536512615 C 7.262412517421092 -5.121597917777724 7.192097795777464 -5.137560125404617 7.158574177042572 -5.190774129113654 L 7.158574177042572 -5.190774129113654 C 7.125050558307683 -5.2439881328226905 7.141012765934573 -5.31430285446632 7.1942267696436115 -5.34782647320121 L 7.990965893847335 -5.849754100692252 C 8.04417989755637 -5.883277719427142 8.114494619200002 -5.86731551180025 8.148018237934892 -5.814101508091213 L 8.148018237934892 -5.814101508091213 C 8.181541856669783 -5.7608875043821755 8.16557964904289 -5.690572782738547 8.112365645333853 -5.657049164003657 Z" fill="#bab9b4" transform="matrix(1,0,0,1,0,0)" fill-rule="nonzero"></path></g><g clip-path="url(#SvgjsClipPath315838ca0bbd9-7f2d-4c44-b78a-7c7406d45b49)"><path d=" M 3.0282618034161692 -1.803007342716909 L 3.0282618034161692 -4.185794766490968 L 1.259485001419551 -4.185794766490968 L 0.5862043738523144 -2.594827981863739 L 0.5862043738523144 -2.183267716941332 L 0.6880955074010653 -2.183267716941332 C 0.7760015834039093 -2.183267716941332 0.8479247364971453 -2.111344563848096 0.8479247364971453 -2.023438487845252 C 0.8479247364971453 -1.9355324118424075 0.7760015834039093 -1.8636092587491708 0.6880955074010653 -1.8636092587491708 L 0.5862043738523144 -1.8636092587491708 L 0.5862043738523144 -1.2182987462737476 L 0.8579140633156503 -1.2182987462737476 C 0.9518137354095972 -1.7104395808654278 1.383352653969013 -2.083374448756281 1.9027976485312728 -2.083374448756281 C 2.422242643093533 -2.083374448756281 2.8544475167741825 -1.7111055359866612 2.948347188868129 -1.2182987462737476 L 3.166780468632772 -1.2182987462737476 C 3.2107335066341935 -1.4480532630993634 3.327941607971319 -1.651169575075632 3.4937644331585016 -1.8030073427169082 L 3.0275958482949354 -1.8030073427169082 Z M 2.3989342138503544 -2.683400012987816 L 1.252159495085981 -2.683400012987816 L 1.681034593160462 -3.7043092138390263 L 2.3989342138503544 -3.7043092138390263 L 2.3989342138503544 -2.683400012987816 Z" fill="#bab9b4" transform="matrix(1,0,0,1,0,0)" fill-rule="nonzero"></path></g></g><g><path d=" M 0.48 0.8145 Q 0.4845 0.8145 0.48825 0.8205 Q 0.492 0.8265 0.4875 0.8295 Q 0.432 0.882 0.3825 0.90525 Q 0.333 0.9285 0.2775 0.9285 Q 0.213 0.9285 0.16875 0.8977499999999999 Q 0.1245 0.867 0.1245 0.7949999999999999 L 0.1245 0.45599999999999996 Q 0.1245 0.4065 0.10875 0.39 Q 0.093 0.37349999999999994 0.048 0.37349999999999994 Q 0.0465 0.37349999999999994 0.04425 0.3697499999999999 Q 0.042 0.366 0.042 0.36149999999999993 Q 0.042 0.357 0.04425 0.35324999999999995 Q 0.0465 0.3494999999999999 0.048 0.3494999999999999 Q 0.189 0.3434999999999999 0.225 0.22799999999999998 Q 0.228 0.22199999999999998 0.23775000000000002 0.22199999999999998 Q 0.2475 0.22199999999999998 0.2475 0.22799999999999998 L 0.2475 0.3464999999999999 Q 0.318 0.345 0.447 0.3315 Q 0.45 0.3315 0.45375 0.34275 Q 0.4575 0.354 0.4575 0.36749999999999994 Q 0.4575 0.381 0.45225 0.39449999999999996 Q 0.447 0.4079999999999999 0.441 0.4065 Q 0.357 0.387 0.2475 0.38249999999999995 L 0.2475 0.7454999999999999 Q 0.2475 0.8039999999999999 0.27675 0.83175 Q 0.306 0.8594999999999999 0.3585 0.8594999999999999 Q 0.4215 0.8594999999999999 0.47700000000000004 0.816 L 0.48 0.8145 M 1.004962646484375 0.33899999999999997 Q 1.0364626464843751 0.36149999999999993 1.0364626464843751 0.393 Q 1.0364626464843751 0.4215 1.019212646484375 0.43949999999999995 Q 1.001962646484375 0.45749999999999996 0.971962646484375 0.45749999999999996 Q 0.9524626464843751 0.45749999999999996 0.939712646484375 0.44925 Q 0.926962646484375 0.44099999999999995 0.913462646484375 0.426 Q 0.8999626464843751 0.4125 0.889462646484375 0.40574999999999994 Q 0.8789626464843749 0.3989999999999999 0.863962646484375 0.3989999999999999 Q 0.8474626464843751 0.3989999999999999 0.828712646484375 0.41174999999999995 Q 0.809962646484375 0.4245 0.7709626464843751 0.46499999999999997 L 0.7709626464843751 0.7889999999999999 Q 0.7709626464843751 0.831 0.7829626464843751 0.85275 Q 0.794962646484375 0.8744999999999999 0.8234626464843751 0.8835 Q 0.851962646484375 0.8925 0.907462646484375 0.8925 Q 0.913462646484375 0.8925 0.913462646484375 0.9015 Q 0.913462646484375 0.9105 0.907462646484375 0.9105 Q 0.857962646484375 0.9105 0.827962646484375 0.909 L 0.709462646484375 0.9075 L 0.622462646484375 0.909 Q 0.601462646484375 0.9105 0.563962646484375 0.9105 Q 0.559462646484375 0.9105 0.559462646484375 0.9015 Q 0.559462646484375 0.8925 0.563962646484375 0.8925 Q 0.614962646484375 0.8925 0.631462646484375 0.8714999999999999 Q 0.647962646484375 0.8505 0.647962646484375 0.7889999999999999 L 0.647962646484375 0.5025 Q 0.647962646484375 0.45449999999999996 0.636712646484375 0.43199999999999994 Q 0.625462646484375 0.4095 0.599962646484375 0.4095 Q 0.577462646484375 0.4095 0.524962646484375 0.43199999999999994 L 0.523462646484375 0.43199999999999994 Q 0.517462646484375 0.43199999999999994 0.514462646484375 0.4245 Q 0.511462646484375 0.417 0.515962646484375 0.4155 L 0.712462646484375 0.3195 Q 0.721462646484375 0.3165 0.722962646484375 0.3165 Q 0.737962646484375 0.3165 0.752962646484375 0.34875 Q 0.767962646484375 0.381 0.7709626464843751 0.43349999999999994 Q 0.8294626464843751 0.36749999999999994 0.868462646484375 0.34199999999999997 Q 0.907462646484375 0.3165 0.938962646484375 0.3165 Q 0.973462646484375 0.3165 1.004962646484375 0.33899999999999997 M 1.7669619140625001 0.816 Q 1.7729619140625 0.816 1.7767119140625 0.82275 Q 1.7804619140625 0.8295 1.7759619140625 0.8325 L 1.5794619140625001 0.9269999999999999 Q 1.5764619140625 0.9285 1.5719619140624999 0.9285 Q 1.5584619140625 0.9285 1.5472119140625 0.8985 Q 1.5359619140625 0.8684999999999999 1.5329619140625 0.8205 Q 1.4819619140625 0.87 1.4294619140625 0.89925 Q 1.3769619140625 0.9285 1.3139619140625 0.9285 Q 1.2539619140625 0.9285 1.2029619140625 0.8977499999999999 Q 1.1519619140625 0.867 1.1219619140625 0.80775 Q 1.0919619140625 0.7484999999999999 1.0919619140625 0.6659999999999999 Q 1.0919619140625 0.5594999999999999 1.1422119140625 0.47924999999999995 Q 1.1924619140625 0.3989999999999999 1.2727119140625 0.35624999999999996 Q 1.3529619140625 0.3135 1.4399619140625 0.3135 Q 1.5239619140625 0.3135 1.5854619140625 0.354 Q 1.6169619140625 0.33899999999999997 1.6379619140625001 0.31499999999999995 Q 1.6394619140625 0.3135 1.6424619140624999 0.3135 Q 1.6454619140625 0.3135 1.6492119140625001 0.31575 Q 1.6529619140625 0.31799999999999995 1.6529619140625 0.32099999999999995 L 1.6529619140625 0.7484999999999999 Q 1.6529619140625 0.7949999999999999 1.6634619140625 0.8145 Q 1.6739619140625002 0.834 1.6979619140625 0.834 Q 1.7234619140625 0.834 1.7654619140625 0.816 L 1.7669619140625001 0.816 M 1.5314619140625 0.7949999999999999 L 1.5314619140625 0.7889999999999999 L 1.5314619140625 0.4755 Q 1.5314619140625 0.4185 1.4939619140625 0.381 Q 1.4564619140625 0.3434999999999999 1.4009619140625 0.3434999999999999 Q 1.3229619140625 0.3434999999999999 1.2757119140625 0.42 Q 1.2284619140625 0.49649999999999994 1.2284619140625 0.618 Q 1.2284619140625 0.7304999999999999 1.2697119140625 0.7949999999999999 Q 1.3109619140625 0.8594999999999999 1.3829619140625 0.8594999999999999 Q 1.4489619140625 0.8594999999999999 1.5314619140625 0.7949999999999999 M 2.534947265625 0.9015 Q 2.534947265625 0.9105 2.530447265625 0.9105 Q 2.4929472656250002 0.9105 2.4719472656250003 0.909 L 2.384947265625 0.9075 L 2.299447265625 0.909 Q 2.276947265625 0.9105 2.239447265625 0.9105 Q 2.2349472656250002 0.9105 2.2349472656250002 0.9015 Q 2.2349472656250002 0.8925 2.239447265625 0.8925 Q 2.290447265625 0.8925 2.3069472656250003 0.8714999999999999 Q 2.323447265625 0.8505 2.323447265625 0.7889999999999999 L 2.323447265625 0.564 Q 2.323447265625 0.48 2.292697265625 0.44025 Q 2.261947265625 0.40049999999999997 2.195947265625 0.40049999999999997 Q 2.156947265625 0.40049999999999997 2.116447265625 0.4185 Q 2.075947265625 0.43649999999999994 2.042947265625 0.46649999999999997 L 2.042947265625 0.7889999999999999 Q 2.042947265625 0.8505 2.0594472656250002 0.8714999999999999 Q 2.075947265625 0.8925 2.126947265625 0.8925 Q 2.131447265625 0.8925 2.131447265625 0.9015 Q 2.131447265625 0.9105 2.126947265625 0.9105 Q 2.089447265625 0.9105 2.068447265625 0.909 L 1.9814472656250002 0.9075 L 1.8944472656250002 0.909 Q 1.873447265625 0.9105 1.8359472656250002 0.9105 Q 1.831447265625 0.9105 1.831447265625 0.9015 Q 1.831447265625 0.8925 1.8359472656250002 0.8925 Q 1.8869472656250001 0.8925 1.903447265625 0.8714999999999999 Q 1.919947265625 0.8505 1.919947265625 0.7889999999999999 L 1.919947265625 0.5025 Q 1.919947265625 0.45449999999999996 1.908697265625 0.43199999999999994 Q 1.897447265625 0.4095 1.871947265625 0.4095 Q 1.849447265625 0.4095 1.796947265625 0.43199999999999994 L 1.795447265625 0.43199999999999994 Q 1.789447265625 0.43199999999999994 1.7864472656250001 0.4245 Q 1.783447265625 0.417 1.7879472656250002 0.4155 L 1.984447265625 0.3195 Q 1.9934472656250002 0.3165 1.994947265625 0.3165 Q 2.009947265625 0.3165 2.0256972656250003 0.35024999999999995 Q 2.041447265625 0.384 2.042947265625 0.43799999999999994 Q 2.147947265625 0.3135 2.2709472656250003 0.3135 Q 2.3534472656250003 0.3135 2.3999472656250003 0.36375 Q 2.4464472656250003 0.414 2.4464472656250003 0.49949999999999994 L 2.4464472656250003 0.7889999999999999 Q 2.4464472656250003 0.8505 2.462947265625 0.8714999999999999 Q 2.479447265625 0.8925 2.530447265625 0.8925 Q 2.534947265625 0.8925 2.534947265625 0.9015 M 2.756212646484375 0.4875 Q 2.788462646484375 0.5189999999999999 2.849962646484375 0.5535 Q 2.903962646484375 0.5834999999999999 2.933212646484375 0.603 Q 2.962462646484375 0.6224999999999999 2.984212646484375 0.6555 Q 3.005962646484375 0.6885 3.005962646484375 0.735 Q 3.005962646484375 0.786 2.980462646484375 0.8295 Q 2.954962646484375 0.873 2.904712646484375 0.9 Q 2.854462646484375 0.9269999999999999 2.785462646484375 0.9269999999999999 Q 2.702962646484375 0.9269999999999999 2.633962646484375 0.885 Q 2.624962646484375 0.876 2.624962646484375 0.867 L 2.621962646484375 0.729 Q 2.621962646484375 0.7244999999999999 2.630212646484375 0.72375 Q 2.638462646484375 0.723 2.639962646484375 0.726 Q 2.665462646484375 0.8009999999999999 2.717212646484375 0.849 Q 2.768962646484375 0.897 2.827462646484375 0.897 Q 2.864962646484375 0.897 2.885962646484375 0.8775 Q 2.906962646484375 0.858 2.906962646484375 0.819 Q 2.906962646484375 0.762 2.873962646484375 0.72825 Q 2.840962646484375 0.6945 2.777962646484375 0.6615 Q 2.726962646484375 0.6345 2.698462646484375 0.61575 Q 2.669962646484375 0.597 2.649712646484375 0.56475 Q 2.629462646484375 0.5325 2.629462646484375 0.4845 Q 2.629462646484375 0.3989999999999999 2.691712646484375 0.357 Q 2.753962646484375 0.31499999999999995 2.842462646484375 0.31499999999999995 Q 2.900962646484375 0.31499999999999995 2.962462646484375 0.3374999999999999 Q 2.975962646484375 0.3434999999999999 2.975962646484375 0.354 Q 2.975962646484375 0.38849999999999996 2.974462646484375 0.4079999999999999 L 2.972962646484375 0.48 Q 2.972962646484375 0.4845 2.963962646484375 0.4845 Q 2.954962646484375 0.4845 2.954962646484375 0.48 Q 2.954962646484375 0.44999999999999996 2.930962646484375 0.41774999999999995 Q 2.906962646484375 0.38549999999999995 2.869462646484375 0.36449999999999994 Q 2.8319626464843752 0.3434999999999999 2.792962646484375 0.3434999999999999 Q 2.723962646484375 0.3434999999999999 2.723962646484375 0.4095 Q 2.723962646484375 0.45599999999999996 2.756212646484375 0.4875 M 3.30892529296875 0.9075 L 3.30892529296875 1.2015 Q 3.30892529296875 1.2465 3.31942529296875 1.2675 Q 3.32992529296875 1.2885 3.3584252929687497 1.2967499999999998 Q 3.38692529296875 1.305 3.44842529296875 1.305 Q 3.45142529296875 1.305 3.45142529296875 1.314 Q 3.45142529296875 1.323 3.44842529296875 1.323 Q 3.3944252929687497 1.323 3.36442529296875 1.3215 L 3.24742529296875 1.32 L 3.16192529296875 1.3215 Q 3.13942529296875 1.323 3.1004252929687497 1.323 Q 3.09592529296875 1.323 3.09592529296875 1.314 Q 3.09592529296875 1.305 3.1004252929687497 1.305 Q 3.13792529296875 1.305 3.15592529296875 1.2967499999999998 Q 3.17392529296875 1.2885 3.18067529296875 1.2675 Q 3.18742529296875 1.2465 3.18742529296875 1.2015 L 3.18742529296875 0.504 Q 3.18742529296875 0.45449999999999996 3.17617529296875 0.43199999999999994 Q 3.16492529296875 0.4095 3.13792529296875 0.4095 Q 3.1124252929687497 0.4095 3.0659252929687497 0.4305 L 3.06292529296875 0.4305 Q 3.05692529296875 0.4305 3.0539252929687497 0.42374999999999996 Q 3.05092529296875 0.417 3.0539252929687497 0.414 L 3.2519252929687497 0.3195 Q 3.2549252929687498 0.31799999999999995 3.26092529296875 0.31799999999999995 Q 3.2774252929687497 0.31799999999999995 3.29092529296875 0.34575 Q 3.30442529296875 0.37349999999999994 3.30742529296875 0.4215 Q 3.42292529296875 0.31199999999999994 3.54142529296875 0.31199999999999994 Q 3.6044252929687497 0.31199999999999994 3.65842529296875 0.345 Q 3.71242529296875 0.378 3.7446752929687497 0.44099999999999995 Q 3.77692529296875 0.504 3.77692529296875 0.588 Q 3.77692529296875 0.7064999999999999 3.72667529296875 0.7829999999999999 Q 3.6764252929687498 0.8594999999999999 3.60142529296875 0.8947499999999999 Q 3.52642529296875 0.9299999999999999 3.44842529296875 0.9299999999999999 Q 3.37642529296875 0.9299999999999999 3.30892529296875 0.9075 M 3.30892529296875 0.45149999999999996 L 3.30892529296875 0.45449999999999996 L 3.30892529296875 0.813 Q 3.34492529296875 0.852 3.38467529296875 0.873 Q 3.42442529296875 0.894 3.48142529296875 0.894 Q 3.5564252929687497 0.894 3.59992529296875 0.82875 Q 3.64342529296875 0.7635 3.64342529296875 0.6345 Q 3.64342529296875 0.516 3.58942529296875 0.45149999999999996 Q 3.5354252929687497 0.387 3.45442529296875 0.387 Q 3.37792529296875 0.387 3.30892529296875 0.45149999999999996 M 4.0169611816406245 0.88725 Q 3.9479611816406246 0.8445 3.910461181640625 0.7717499999999999 Q 3.872961181640625 0.699 3.872961181640625 0.6134999999999999 Q 3.872961181640625 0.516 3.921711181640625 0.44775 Q 3.9704611816406246 0.37949999999999995 4.046211181640625 0.34575 Q 4.121961181640625 0.31199999999999994 4.201461181640624 0.31199999999999994 Q 4.292961181640624 0.31199999999999994 4.361211181640625 0.3554999999999999 Q 4.429461181640625 0.3989999999999999 4.465461181640625 0.47024999999999995 Q 4.501461181640625 0.5415 4.501461181640625 0.6224999999999999 Q 4.501461181640625 0.7124999999999999 4.457211181640625 0.7829999999999999 Q 4.4129611816406245 0.8534999999999999 4.337961181640624 0.8917499999999999 Q 4.262961181640625 0.9299999999999999 4.175961181640624 0.9299999999999999 Q 4.0859611816406245 0.9299999999999999 4.0169611816406245 0.88725 M 4.322211181640625 0.8414999999999999 Q 4.357461181640625 0.7829999999999999 4.357461181640625 0.6705 Q 4.357461181640625 0.57 4.329711181640625 0.49499999999999994 Q 4.301961181640625 0.42 4.254711181640625 0.381 Q 4.207461181640625 0.34199999999999997 4.151961181640624 0.34199999999999997 Q 4.084461181640624 0.34199999999999997 4.049961181640625 0.39749999999999996 Q 4.0154611816406245 0.45299999999999996 4.0154611816406245 0.5609999999999999 Q 4.0154611816406245 0.6585 4.041711181640625 0.7357499999999999 Q 4.067961181640625 0.813 4.115211181640625 0.8564999999999999 Q 4.162461181640625 0.9 4.220961181640625 0.9 Q 4.286961181640625 0.9 4.322211181640625 0.8414999999999999 M 5.0519956054687505 0.33899999999999997 Q 5.08349560546875 0.36149999999999993 5.08349560546875 0.393 Q 5.08349560546875 0.4215 5.06624560546875 0.43949999999999995 Q 5.04899560546875 0.45749999999999996 5.01899560546875 0.45749999999999996 Q 4.99949560546875 0.45749999999999996 4.98674560546875 0.44925 Q 4.97399560546875 0.44099999999999995 4.960495605468751 0.426 Q 4.94699560546875 0.4125 4.93649560546875 0.40574999999999994 Q 4.92599560546875 0.3989999999999999 4.9109956054687505 0.3989999999999999 Q 4.89449560546875 0.3989999999999999 4.87574560546875 0.41174999999999995 Q 4.85699560546875 0.4245 4.8179956054687505 0.46499999999999997 L 4.8179956054687505 0.7889999999999999 Q 4.8179956054687505 0.831 4.82999560546875 0.85275 Q 4.84199560546875 0.8744999999999999 4.87049560546875 0.8835 Q 4.89899560546875 0.8925 4.95449560546875 0.8925 Q 4.960495605468751 0.8925 4.960495605468751 0.9015 Q 4.960495605468751 0.9105 4.95449560546875 0.9105 Q 4.90499560546875 0.9105 4.87499560546875 0.909 L 4.75649560546875 0.9075 L 4.66949560546875 0.909 Q 4.64849560546875 0.9105 4.61099560546875 0.9105 Q 4.6064956054687505 0.9105 4.6064956054687505 0.9015 Q 4.6064956054687505 0.8925 4.61099560546875 0.8925 Q 4.66199560546875 0.8925 4.6784956054687505 0.8714999999999999 Q 4.69499560546875 0.8505 4.69499560546875 0.7889999999999999 L 4.69499560546875 0.5025 Q 4.69499560546875 0.45449999999999996 4.68374560546875 0.43199999999999994 Q 4.67249560546875 0.4095 4.64699560546875 0.4095 Q 4.62449560546875 0.4095 4.57199560546875 0.43199999999999994 L 4.57049560546875 0.43199999999999994 Q 4.56449560546875 0.43199999999999994 4.56149560546875 0.4245 Q 4.55849560546875 0.417 4.56299560546875 0.4155 L 4.75949560546875 0.3195 Q 4.76849560546875 0.3165 4.7699956054687505 0.3165 Q 4.78499560546875 0.3165 4.79999560546875 0.34875 Q 4.81499560546875 0.381 4.8179956054687505 0.43349999999999994 Q 4.87649560546875 0.36749999999999994 4.91549560546875 0.34199999999999997 Q 4.95449560546875 0.3165 4.98599560546875 0.3165 Q 5.02049560546875 0.3165 5.0519956054687505 0.33899999999999997 M 5.5875307617187495 0.8145 Q 5.59203076171875 0.8145 5.59578076171875 0.8205 Q 5.59953076171875 0.8265 5.59503076171875 0.8295 Q 5.53953076171875 0.882 5.49003076171875 0.90525 Q 5.44053076171875 0.9285 5.38503076171875 0.9285 Q 5.32053076171875 0.9285 5.27628076171875 0.8977499999999999 Q 5.23203076171875 0.867 5.23203076171875 0.7949999999999999 L 5.23203076171875 0.45599999999999996 Q 5.23203076171875 0.4065 5.21628076171875 0.39 Q 5.20053076171875 0.37349999999999994 5.15553076171875 0.37349999999999994 Q 5.15403076171875 0.37349999999999994 5.15178076171875 0.3697499999999999 Q 5.14953076171875 0.366 5.14953076171875 0.36149999999999993 Q 5.14953076171875 0.357 5.15178076171875 0.35324999999999995 Q 5.15403076171875 0.3494999999999999 5.15553076171875 0.3494999999999999 Q 5.29653076171875 0.3434999999999999 5.33253076171875 0.22799999999999998 Q 5.33553076171875 0.22199999999999998 5.34528076171875 0.22199999999999998 Q 5.35503076171875 0.22199999999999998 5.35503076171875 0.22799999999999998 L 5.35503076171875 0.3464999999999999 Q 5.42553076171875 0.345 5.55453076171875 0.3315 Q 5.55753076171875 0.3315 5.56128076171875 0.34275 Q 5.56503076171875 0.354 5.56503076171875 0.36749999999999994 Q 5.56503076171875 0.381 5.55978076171875 0.39449999999999996 Q 5.55453076171875 0.4079999999999999 5.54853076171875 0.4065 Q 5.46453076171875 0.387 5.35503076171875 0.38249999999999995 L 5.35503076171875 0.7454999999999999 Q 5.35503076171875 0.8039999999999999 5.38428076171875 0.83175 Q 5.41353076171875 0.8594999999999999 5.46603076171875 0.8594999999999999 Q 5.52903076171875 0.8594999999999999 5.58453076171875 0.816 L 5.5875307617187495 0.8145 M 6.334493408203125 0.816 Q 6.340493408203125 0.816 6.344243408203125 0.82275 Q 6.347993408203125 0.8295 6.343493408203125 0.8325 L 6.146993408203125 0.9269999999999999 Q 6.143993408203125 0.9285 6.1394934082031245 0.9285 Q 6.125993408203125 0.9285 6.114743408203125 0.8985 Q 6.103493408203125 0.8684999999999999 6.100493408203125 0.8205 Q 6.049493408203125 0.87 5.996993408203124 0.89925 Q 5.944493408203125 0.9285 5.8814934082031245 0.9285 Q 5.821493408203125 0.9285 5.770493408203125 0.8977499999999999 Q 5.719493408203125 0.867 5.689493408203125 0.80775 Q 5.659493408203125 0.7484999999999999 5.659493408203125 0.6659999999999999 Q 5.659493408203125 0.5594999999999999 5.709743408203125 0.47924999999999995 Q 5.759993408203125 0.3989999999999999 5.840243408203125 0.35624999999999996 Q 5.920493408203125 0.3135 6.007493408203125 0.3135 Q 6.0914934082031245 0.3135 6.152993408203125 0.354 Q 6.184493408203124 0.33899999999999997 6.205493408203125 0.31499999999999995 Q 6.206993408203125 0.3135 6.2099934082031245 0.3135 Q 6.212993408203125 0.3135 6.216743408203125 0.31575 Q 6.220493408203125 0.31799999999999995 6.220493408203125 0.32099999999999995 L 6.220493408203125 0.7484999999999999 Q 6.220493408203125 0.7949999999999999 6.230993408203124 0.8145 Q 6.241493408203125 0.834 6.265493408203125 0.834 Q 6.290993408203125 0.834 6.332993408203125 0.816 L 6.334493408203125 0.816 M 6.098993408203125 0.7949999999999999 L 6.098993408203125 0.7889999999999999 L 6.098993408203125 0.4755 Q 6.098993408203125 0.4185 6.061493408203125 0.381 Q 6.023993408203125 0.3434999999999999 5.968493408203125 0.3434999999999999 Q 5.890493408203125 0.3434999999999999 5.843243408203125 0.42 Q 5.795993408203125 0.49649999999999994 5.795993408203125 0.618 Q 5.795993408203125 0.7304999999999999 5.837243408203125 0.7949999999999999 Q 5.878493408203125 0.8594999999999999 5.9504934082031244 0.8594999999999999 Q 6.016493408203125 0.8594999999999999 6.098993408203125 0.7949999999999999 M 6.821978759765624 0.8145 Q 6.8264787597656245 0.8145 6.830228759765625 0.8205 Q 6.833978759765625 0.8265 6.829478759765625 0.8295 Q 6.773978759765625 0.882 6.724478759765625 0.90525 Q 6.674978759765625 0.9285 6.619478759765625 0.9285 Q 6.554978759765625 0.9285 6.510728759765625 0.8977499999999999 Q 6.466478759765625 0.867 6.466478759765625 0.7949999999999999 L 6.466478759765625 0.45599999999999996 Q 6.466478759765625 0.4065 6.450728759765624 0.39 Q 6.434978759765625 0.37349999999999994 6.389978759765625 0.37349999999999994 Q 6.388478759765625 0.37349999999999994 6.386228759765625 0.3697499999999999 Q 6.383978759765625 0.366 6.383978759765625 0.36149999999999993 Q 6.383978759765625 0.357 6.386228759765625 0.35324999999999995 Q 6.388478759765625 0.3494999999999999 6.389978759765625 0.3494999999999999 Q 6.530978759765625 0.3434999999999999 6.566978759765624 0.22799999999999998 Q 6.5699787597656245 0.22199999999999998 6.579728759765625 0.22199999999999998 Q 6.589478759765624 0.22199999999999998 6.589478759765624 0.22799999999999998 L 6.589478759765624 0.3464999999999999 Q 6.659978759765624 0.345 6.788978759765625 0.3315 Q 6.791978759765625 0.3315 6.795728759765625 0.34275 Q 6.799478759765625 0.354 6.799478759765625 0.36749999999999994 Q 6.799478759765625 0.381 6.794228759765625 0.39449999999999996 Q 6.788978759765625 0.4079999999999999 6.782978759765625 0.4065 Q 6.698978759765625 0.387 6.589478759765624 0.38249999999999995 L 6.589478759765624 0.7454999999999999 Q 6.589478759765624 0.8039999999999999 6.618728759765625 0.83175 Q 6.647978759765625 0.8594999999999999 6.700478759765625 0.8594999999999999 Q 6.763478759765625 0.8594999999999999 6.818978759765625 0.816 L 6.821978759765624 0.8145 M 6.98769140625 0.138 Q 6.96594140625 0.11699999999999999 6.96594140625 0.07799999999999996 Q 6.96594140625 0.04049999999999998 6.98769140625 0.02024999999999999 Q 7.00944140625 0 7.048441406249999 0 Q 7.08594140625 0 7.10694140625 0.02024999999999999 Q 7.12794140625 0.04049999999999998 7.12794140625 0.07799999999999996 Q 7.12794140625 0.11699999999999999 7.10769140625 0.138 Q 7.08744140625 0.15899999999999992 7.048441406249999 0.15899999999999992 Q 7.00944140625 0.15899999999999992 6.98769140625 0.138 M 6.905941406249999 0.9015 Q 6.905941406249999 0.8925 6.9104414062499995 0.8925 Q 6.96144140625 0.8925 6.977941406249999 0.8714999999999999 Q 6.99444140625 0.8505 6.99444140625 0.7889999999999999 L 6.99444140625 0.516 Q 6.99444140625 0.46499999999999997 6.98394140625 0.44175 Q 6.97344140625 0.4185 6.94794140625 0.4185 Q 6.92544140625 0.4185 6.88944140625 0.43649999999999994 L 6.8879414062499995 0.43649999999999994 Q 6.881941406249999 0.43649999999999994 6.87894140625 0.429 Q 6.87594140625 0.4215 6.880441406249999 0.4185 L 7.096441406249999 0.31799999999999995 L 7.10094140625 0.3165 Q 7.10694140625 0.3165 7.11369140625 0.3232499999999999 Q 7.120441406249999 0.32999999999999996 7.120441406249999 0.3344999999999999 L 7.120441406249999 0.366 Q 7.117441406249999 0.429 7.117441406249999 0.5145 L 7.117441406249999 0.7889999999999999 Q 7.117441406249999 0.8505 7.13469140625 0.8714999999999999 Q 7.15194140625 0.8925 7.20294140625 0.8925 Q 7.20744140625 0.8925 7.20744140625 0.9015 Q 7.20744140625 0.9105 7.20294140625 0.9105 Q 7.165441406249999 0.9105 7.142941406249999 0.909 L 7.05594140625 0.9075 L 6.96894140625 0.909 Q 6.94794140625 0.9105 6.9104414062499995 0.9105 Q 6.905941406249999 0.9105 6.905941406249999 0.9015 M 7.43392822265625 0.88725 Q 7.36492822265625 0.8445 7.327428222656249 0.7717499999999999 Q 7.28992822265625 0.699 7.28992822265625 0.6134999999999999 Q 7.28992822265625 0.516 7.33867822265625 0.44775 Q 7.38742822265625 0.37949999999999995 7.46317822265625 0.34575 Q 7.538928222656249 0.31199999999999994 7.61842822265625 0.31199999999999994 Q 7.7099282226562496 0.31199999999999994 7.7781782226562495 0.3554999999999999 Q 7.846428222656249 0.3989999999999999 7.88242822265625 0.47024999999999995 Q 7.9184282226562495 0.5415 7.9184282226562495 0.6224999999999999 Q 7.9184282226562495 0.7124999999999999 7.87417822265625 0.7829999999999999 Q 7.82992822265625 0.8534999999999999 7.7549282226562495 0.8917499999999999 Q 7.679928222656249 0.9299999999999999 7.59292822265625 0.9299999999999999 Q 7.50292822265625 0.9299999999999999 7.43392822265625 0.88725 M 7.73917822265625 0.8414999999999999 Q 7.774428222656249 0.7829999999999999 7.774428222656249 0.6705 Q 7.774428222656249 0.57 7.746678222656249 0.49499999999999994 Q 7.71892822265625 0.42 7.67167822265625 0.381 Q 7.62442822265625 0.34199999999999997 7.5689282226562495 0.34199999999999997 Q 7.50142822265625 0.34199999999999997 7.466928222656249 0.39749999999999996 Q 7.43242822265625 0.45299999999999996 7.43242822265625 0.5609999999999999 Q 7.43242822265625 0.6585 7.45867822265625 0.7357499999999999 Q 7.48492822265625 0.813 7.53217822265625 0.8564999999999999 Q 7.57942822265625 0.9 7.6379282226562495 0.9 Q 7.703928222656249 0.9 7.73917822265625 0.8414999999999999 M 8.726962646484374 0.9015 Q 8.726962646484374 0.9105 8.722462646484374 0.9105 Q 8.684962646484374 0.9105 8.663962646484375 0.909 L 8.576962646484375 0.9075 L 8.491462646484374 0.909 Q 8.468962646484375 0.9105 8.431462646484375 0.9105 Q 8.426962646484375 0.9105 8.426962646484375 0.9015 Q 8.426962646484375 0.8925 8.431462646484375 0.8925 Q 8.482462646484375 0.8925 8.498962646484374 0.8714999999999999 Q 8.515462646484375 0.8505 8.515462646484375 0.7889999999999999 L 8.515462646484375 0.564 Q 8.515462646484375 0.48 8.484712646484374 0.44025 Q 8.453962646484374 0.40049999999999997 8.387962646484375 0.40049999999999997 Q 8.348962646484374 0.40049999999999997 8.308462646484374 0.4185 Q 8.267962646484374 0.43649999999999994 8.234962646484375 0.46649999999999997 L 8.234962646484375 0.7889999999999999 Q 8.234962646484375 0.8505 8.251462646484374 0.8714999999999999 Q 8.267962646484374 0.8925 8.318962646484374 0.8925 Q 8.323462646484375 0.8925 8.323462646484375 0.9015 Q 8.323462646484375 0.9105 8.318962646484374 0.9105 Q 8.281462646484375 0.9105 8.260462646484374 0.909 L 8.173462646484374 0.9075 L 8.086462646484375 0.909 Q 8.065462646484374 0.9105 8.027962646484374 0.9105 Q 8.023462646484374 0.9105 8.023462646484374 0.9015 Q 8.023462646484374 0.8925 8.027962646484374 0.8925 Q 8.078962646484374 0.8925 8.095462646484375 0.8714999999999999 Q 8.111962646484374 0.8505 8.111962646484374 0.7889999999999999 L 8.111962646484374 0.5025 Q 8.111962646484374 0.45449999999999996 8.100712646484375 0.43199999999999994 Q 8.089462646484375 0.4095 8.063962646484374 0.4095 Q 8.041462646484375 0.4095 7.988962646484374 0.43199999999999994 L 7.987462646484374 0.43199999999999994 Q 7.981462646484374 0.43199999999999994 7.978462646484374 0.4245 Q 7.975462646484375 0.417 7.979962646484374 0.4155 L 8.176462646484374 0.3195 Q 8.185462646484375 0.3165 8.186962646484375 0.3165 Q 8.201962646484374 0.3165 8.217712646484374 0.35024999999999995 Q 8.233462646484375 0.384 8.234962646484375 0.43799999999999994 Q 8.339962646484375 0.3135 8.462962646484375 0.3135 Q 8.545462646484374 0.3135 8.591962646484374 0.36375 Q 8.638462646484374 0.414 8.638462646484374 0.49949999999999994 L 8.638462646484374 0.7889999999999999 Q 8.638462646484374 0.8505 8.654962646484375 0.8714999999999999 Q 8.671462646484374 0.8925 8.722462646484374 0.8925 Q 8.726962646484374 0.8925 8.726962646484374 0.9015" fill="#404040" fill-rule="nonzero"></path></g><g></g></g><defs><clipPath id="SvgjsClipPath31588"><path d=" M 0.5862043738523144 -7.51024273168943 h 7.578569279639123 v 7.26024273168943 h -7.578569279639123 Z"></path></clipPath><clipPath id="SvgjsClipPath315838ca0bbd9-7f2d-4c44-b78a-7c7406d45b49"><path d=" M 0.5862043738523144 -7.510242731689431 L 8.164773653491437 -7.510242731689431 L 8.164773653491437 -0.25 L 0.5862043738523144 -0.25 Z"></path></clipPath></defs></svg>