<svg xmlns="http://www.w3.org/2000/svg" version="1.1" xmlns:xlink="http://www.w3.org/1999/xlink" xmlns:svgjs="http://svgjs.dev/svgjs" viewBox="0 0 9.467081622073295 9.467081622073293"><g transform="matrix(0.8571428571428571,0,0,0.8571428571428571,2.8436568019957162,3.8009165443481914)"><g><path d=" M -1.3492043150644286 0.7701885944772361 Q -1.2982156395984092 0.7743304508510069 -1.2512199941530442 0.7759611896938461 Q -1.2042243487076791 0.7775919285366852 -1.1792244454380758 0.777661473561506 Q -1.1572245305608249 0.7777226731833482 -1.1372218261441494 0.7767783130724206 Q -1.1172191217274738 0.775833952961493 -1.1032163940955033 0.7748729020446086 L -1.1032803755183385 0.7978728130526436 Q -1.1873245593200907 0.8136390798617922 -1.2363925238528375 0.8380026768173547 Q -1.2854604883855845 0.8623662737729174 -1.3060549903004153 0.8963091152992249 Q -1.326649492215246 0.9302519568255324 -1.3267774550609164 0.9762517788416025 L -1.3268414364837513 0.9992516898496375 L -0.7558436458060116 1.000840098216543 Q -0.7158438005746462 1.000951370256256 -0.6958202326505246 0.9925070391644476 Q -0.6757966647264029 0.9840627080726391 -0.6692327084534709 0.9610808787710574 Q -0.662668752180539 0.9380990494694756 -0.6615463568060704 0.8941020015159666 L -0.6415464341903877 0.8941576375358232 Q -0.6426326661519496 0.9251547357891385 -0.6437759250338644 0.9766517547235285 Q -0.6449191839157792 1.0281487736579185 -0.6450749647713776 1.0841485569818299 Q -0.6452279638259832 1.1391483441749573 -0.6443642759438477 1.1881509363843725 Q -0.6435005880617123 1.237153528593788 -0.642584045960713 1.2671561943183047 L -0.6625839685763957 1.2671005582984483 Q -0.6634587836625024 1.2220979506121694 -0.6698947770897643 1.199079957897681 Q -0.6763307705170261 1.1760619651831925 -0.6963084387247661 1.168006360117063 Q -0.716286106932506 1.1599507550509331 -0.7562859521638714 1.1598394830112202 L -1.3272837428416113 1.1582510746443146 L -1.3273449424634536 1.1802509895215656 Q -1.3274729053091237 1.2262508115376358 -1.307067565861805 1.2603077069046493 Q -1.2866622264144865 1.2943646022716628 -1.238229177295284 1.318499426758634 Q -1.1897961281760816 1.3426342512456055 -1.104846529477301 1.3608706346841104 L -1.1049105109001363 1.3838705456921454 Q -1.1189048931291283 1.3818316082166775 -1.1389034248443146 1.3812759741314289 Q -1.158901956559501 1.3807203400461803 -1.1809018714367518 1.380659140424338 Q -1.2059017747063552 1.3805895953995173 -1.2529057655546985 1.3819588449490305 Q -1.299909756403042 1.3833280944985438 -1.350920686277004 1.3871862071710461 Q -1.3497927273005499 1.3411891669559688 -1.3486411230156565 1.2866921596292262 Q -1.3474895187307632 1.2321951523024839 -1.3473365196761575 1.1771953651093567 Q -1.3471835206215519 1.1221955779162294 -1.3470611213778676 1.0781957481617275 Q -1.3469359403331902 1.0331959222764415 -1.3467843321790811 0.9786961331487063 Q -1.346632724024972 0.9241963440209711 -1.3474797211011504 0.8691937750268509 Q -1.3483267181773289 0.8141912060327308 -1.3492043150644286 0.7701885944772361 M -1.3150737134217763 0.5007135728140459 Q -1.3078506088884545 0.47675889141560723 -1.2962490677595162 0.43586079557443685 Q -1.2846475266305781 0.3949626997332665 -1.2741392788010995 0.3542985050707104 Q -1.2621298527102667 0.30782513974207487 -1.251839210861124 0.2640061633695867 Q -1.2415485690119814 0.2201871869970985 -1.236794837851027 0.20179147988784696 Q -1.2020175414629901 0.06721235945700654 -1.1407011139063155 0.011790831945694968 Q -1.0793846863496408 -0.04363069556561672 -0.9990244921355418 -0.022864396283551636 Q -0.9661058583610918 -0.014357719469211716 -0.9362058763076279 0.007828787087759692 Q -0.906305894254164 0.03001529364473121 -0.8861257171051671 0.06983062298199916 Q -0.8659455399561703 0.10964595231926699 -0.8635135153731949 0.17017970535365112 Q -0.8610814907902195 0.23071345838803514 -0.8830987719567464 0.3159146281572003 L -0.907117624138412 0.4088613588144714 L -0.9264815263586769 0.4038574312766244 L -0.9049646379459346 0.3205926517294857 Q -0.890203051709286 0.2634691401797045 -0.9043564522118672 0.22830977081372283 Q -0.9185098527144484 0.1931504014477411 -0.9519399110431829 0.17263379353762565 Q -0.9853699693719173 0.1521171856275102 -1.0299069444785265 0.14060815229046209 Q -1.1063943582485725 0.12084263851596644 -1.1555163441306342 0.13706855922951988 Q -1.204638330012696 0.15329447994307333 -1.221651683641376 0.21913174749197378 Q -1.2314093423401775 0.2568913568214901 -1.2178272837872144 0.27227893900531236 Q -1.2042452252342515 0.2876665211891346 -1.153899079461563 0.3006767327875368 L -0.6736743043989957 0.42477413572614275 Q -0.638819280402519 0.43378120529426734 -0.6200156883313728 0.43295966696775684 Q -0.6012120962602264 0.4321381286412463 -0.5913997835638695 0.41814818512638857 Q -0.5815874708675124 0.4041582416115308 -0.5716447965849307 0.37367639081289183 L -0.5522808943646659 0.37868031835073884 Q -0.5609725867627858 0.4043211935943116 -0.5717147357708788 0.44389209495740833 Q -0.5824568847789718 0.483462996320505 -0.5929651326084505 0.5241271909830612 Q -0.6049745586992834 0.5706005563116966 -0.6151238071617017 0.6118739467182055 Q -0.6252730556241199 0.6531473371247144 -0.6295915748244022 0.6778526076538302 L -0.648955477044667 0.6728486801159831 Q -0.6428855832061383 0.6413660438097747 -0.6446916118419401 0.6243737437722088 Q -0.6464976404777419 0.6073814437346428 -0.6625490724030724 0.5975528358400077 Q -0.6786005043284027 0.5877242279453725 -0.7134555283248794 0.5787171583772479 L -1.1936803033874466 0.454619755438642 Q -1.2295035224949364 0.44536248949362506 -1.247823017010576 0.44630912600858175 Q -1.266142511526216 0.4472557625235384 -1.2765640199665256 0.4616047054054566 Q -1.2869855284068354 0.4759536482873748 -1.2957098112015117 0.5057175003518929 L -1.3150737134217763 0.5007135728140459 M -0.9240773337794218 0.40654441062932795 Q -0.9123506944620374 0.36516221723265097 -0.9015649232568888 0.3354146603664109 Q -0.89077915205174 0.3056671035001709 -0.8823539512287903 0.283055911778084 Q -0.873928750405841 0.26044472005599706 -0.868206824133873 0.2422992093236379 Q -0.8376933929485633 0.1561950252365718 -0.7967958021123355 0.12183462559115865 Q -0.7558982112761078 0.08747422594574561 -0.6926175614936863 0.09039986486989926 L -0.5871389483907985 0.09390160413650683 Q -0.5461593765582378 0.09519570321308168 -0.5281662910131024 0.08951689413322694 Q -0.5101732054679671 0.08383808505337209 -0.5054194743070124 0.06544237794412056 Q -0.503135116518425 0.05260564512405608 -0.5063335204254129 0.04299990660753561 Q -0.5095319243324008 0.03339416809101514 -0.5176801067846228 0.020960056835066854 L -0.5025590161759711 0.010407681803589641 Q -0.4793002699106541 0.04430503748461001 -0.4739857235956382 0.07769673701406721 Q -0.46867117728062235 0.1110884365435244 -0.47967981786388575 0.15368902142810692 Q -0.4931904222160727 0.20597155742282192 -0.5242157829606094 0.23410386963976137 Q -0.5552411437051463 0.2622361818567007 -0.6180214007337831 0.2573741527105206 L -0.7193444466191694 0.24978202701952384 Q -0.761760015919972 0.24605114496713787 -0.7947601256858126 0.24785191020516117 Q -0.8277602354516531 0.24965267544318454 -0.8500502816010143 0.2619674569134077 Q -0.8723403277503752 0.27428223838363097 -0.880096415434038 0.30429628682504145 L -0.907117624138412 0.4088613588144714 L -0.9240773337794218 0.40654441062932795 M -0.8965468332468618 -0.6540769031662147 L -0.23061790235981394 -0.5676844323852872 Q -0.19230943223977015 -0.5627386142465247 -0.17207846879677668 -0.5716385085250125 Q -0.15184750535378316 -0.5805384028035004 -0.14426639546380737 -0.5923505479446722 L -0.12670790390376852 -0.5827745689275668 Q -0.1428277215854306 -0.5573944294892191 -0.16265804138407003 -0.5220778835555681 Q -0.18248836118270945 -0.4867613376219169 -0.2021191181677756 -0.4507664299238372 Q -0.2241438699071181 -0.41038189933574776 -0.24333566460318326 -0.37414759216224047 Q -0.26252745929924837 -0.3379132849887331 -0.27226278496377104 -0.31588549721497594 L -0.28982127652380996 -0.3254614762320814 Q -0.26715837918619495 -0.371193227611891 -0.2743024243086789 -0.390466593153174 Q -0.2814464694311629 -0.40973995869445695 -0.33579660192636746 -0.4166002136280369 L -0.8254273523426676 -0.4899945475154076 L -0.8396350102553233 -0.5182459626416797 L -0.5647543178965546 -0.1951970422466967 Q -0.5131942697483584 -0.13518403169935217 -0.4795937363088569 -0.11742863385585284 Q -0.4459932028693554 -0.09967323601235349 -0.4226500462458026 -0.11427964004785399 Q -0.39930688962224986 -0.12888604408335447 -0.3783990824320351 -0.16304542930172172 L -0.36084059087199627 -0.15346945028461628 Q -0.3783968054062241 -0.12545553711226265 -0.39319973622088317 -0.09935719924763196 Q -0.40800266703554233 -0.07325886138300129 -0.4228454345120557 -0.04604319946494102 Q -0.4333790114308717 -0.026728858748898257 -0.4422766286835485 -0.009369930002432712 Q -0.45117424593622535 0.007988998744032834 -0.4566003810430505 0.022115465315772537 L -0.47415887260308937 0.012539486298667111 Q -0.46761579294713645 -0.0078121256427948 -0.4772744813223652 -0.038138842228508815 Q -0.4869331696975939 -0.06846555881422281 -0.5251642435197401 -0.11323591724930357 L -0.9295839608558756 -0.5935001072840805 Q -0.9210452530641893 -0.6070681015812563 -0.9121874724733667 -0.6233097062742923 Q -0.9033296918825442 -0.6395513109673283 -0.8965468332468618 -0.6540769031662147 M -0.4925467347701724 -0.5134784663654263 L -0.47498824321013355 -0.5039024873483209 L -0.6176703305650044 -0.24228096310374153 L -0.6304408326164905 -0.2606361879008664 L -0.4925467347701724 -0.5134784663654263 M -0.16739532612169583 -1.5803098351812688 L -0.1527745400055509 -1.5666631281298975 Q -0.17168511406451592 -1.5405405289337915 -0.17346448838302225 -1.5203147081337685 Q -0.17524386270152859 -1.5000888873337455 -0.15925864588386007 -1.4776451166324547 Q -0.14327342906619156 -1.4552013459311637 -0.10745250308163656 -1.4217669136553042 L 0.3004674295588064 -1.0410237869220478 Q 0.29154836602217643 -1.0329336506049294 0.28301917411506944 -1.023795659282339 Q 0.27448998220796245 -1.0146576679597483 0.26566832657780987 -1.0037407823258784 L -0.43253683463093007 -1.0617541675182416 L -0.15181774120094782 -0.7997373921319149 Q -0.11161057938154934 -0.762208947740644 -0.08595090774482425 -0.7464662906747149 Q -0.06029123610809915 -0.7307236336087859 -0.037165370057853114 -0.7371807474707275 Q -0.014039504007607062 -0.743637861332669 0.01963844803444581 -0.772391914025345 L 0.034259234150590706 -0.7587452069739737 Q 0.01983278384017359 -0.7462201308687733 -0.0016851317423554057 -0.7238990800650329 Q -0.023203047324884374 -0.7015780292612925 -0.041626101844235486 -0.681839968004497 Q -0.05731981495331237 -0.6650260639709303 -0.07333034376205419 -0.6471399529552722 Q -0.089340872570796 -0.629253841939614 -0.09879615960027846 -0.616192542341561 L -0.11341694571642337 -0.6298392493929321 Q -0.09523741096326568 -0.6566441839416067 -0.09309251699185567 -0.6765288370653454 Q -0.09094762302044566 -0.696413490189084 -0.10729835949101782 -0.7191984285666593 Q -0.12364909596159 -0.7419833669442346 -0.15873898264033776 -0.7747354638675255 L -0.4877066702535982 -1.0817863725233772 Q -0.5147551245684663 -1.1070327805684141 -0.5313011568592201 -1.114952933056424 Q -0.547847189149974 -1.122873085544434 -0.5638574779551023 -1.11524611679031 Q -0.5798677667602308 -1.107619148036186 -0.6017512019956632 -1.08563926490873 L -0.6163719881118082 -1.0992859719601014 Q -0.604723583164904 -1.1103002655004486 -0.5876164953974512 -1.1271628734872539 Q -0.5705094076299986 -1.1440254814740594 -0.5548156945209217 -1.160839385507626 Q -0.5384396460592763 -1.1783843288469997 -0.5241593076085752 -1.1951495289273277 Q -0.5098789691578742 -1.2119147290076557 -0.49832797211744734 -1.2257557718647547 L 0.11444155819664134 -1.1831940200369555 L -0.11437374452102644 -1.3967649853909148 Q -0.15458090634042493 -1.4342934297821857 -0.18024057797715004 -1.4500360868481148 Q -0.20590024961387515 -1.4657787439140437 -0.22939163531702483 -1.4596627977283865 Q -0.2528830210201745 -1.4535468515427292 -0.2858299337564201 -1.4241104634974846 L -0.300450719872565 -1.4377571705488559 Q -0.28675530886795514 -1.450964582006625 -0.2648718736325225 -1.472944465134081 Q -0.24298843839708995 -1.494924348261537 -0.22456538387773883 -1.5146624095183328 Q -0.2081893354160934 -1.5322073528577067 -0.19288549393653942 -1.5500691118967453 Q -0.1775816524569856 -1.5679308709357842 -0.16739532612169583 -1.5803098351812688 M 0.24512863276625863 -1.8934968053274313 Q 0.2945044877606995 -1.9257927020260515 0.3281269634989175 -1.9328481343468198 Q 0.3617494392371355 -1.9399035666675881 0.3886610870109121 -1.9407771879243016 Q 0.4025353503469059 -1.941487692592477 0.41072780036221906 -1.9426640270460214 Q 0.4189202503775323 -1.9438403614995656 0.4247784026650083 -1.947672078057029 Q 0.4381684650363821 -1.956430287331231 0.41910466292159154 -1.9965372873303346 L 0.4383528775804414 -2.0091272131620004 Q 0.44791637219534547 -1.9926791260163563 0.4611668379584264 -1.969680753094312 Q 0.4744173037215073 -1.9466823801722677 0.49753655169682 -1.9104228935093819 Q 0.5206557996721326 -1.8741634068464958 0.5589729652467668 -1.8155818839717355 L 0.5397247505879169 -1.80299195814007 Q 0.5079130548539167 -1.8443201085284844 0.46435346098745556 -1.874379412948064 Q 0.4207938671209944 -1.9044387173676438 0.37300506282771256 -1.9108207377545123 Q 0.32521625853443076 -1.9172027581413809 0.280861676929255 -1.8881911899205865 Q 0.24069148981513364 -1.8619165620979803 0.2295277221208129 -1.8223518013775206 Q 0.21836395442649217 -1.7827870406570607 0.24463858224909843 -1.7426168535429394 Q 0.26653410543460365 -1.7091416976145049 0.2988722436684933 -1.6962384106082478 Q 0.33121038190238306 -1.683335123601991 0.37820969763371726 -1.6818138344163462 Q 0.42520901336505146 -1.6802925452307018 0.4920380997928789 -1.6785974914787587 Q 0.5491773173757668 -1.6789288734568282 0.5979477459765461 -1.6737863746385213 Q 0.6467181745773255 -1.6686438758202145 0.6873145243420429 -1.6485955246216564 Q 0.7279108741067603 -1.6285471734230983 0.7574698304071923 -1.5833557129197118 Q 0.7935974436632759 -1.5281217056377947 0.7882628090994193 -1.4732510242672294 Q 0.7829281745355625 -1.418380342896664 0.7478317999479633 -1.3697337141254233 Q 0.7127354253603642 -1.3210870853541823 0.6566645391802363 -1.2844120840184612 Q 0.6047780474911628 -1.2504740230809281 0.5672448713017093 -1.2402632109128662 Q 0.5297116951122558 -1.2300523987448042 0.501673677621695 -1.2272471224306045 Q 0.47559890874612926 -1.2269208892535288 0.4655563619675989 -1.2203522322978773 Q 0.4521662995962251 -1.2115940230236752 0.47123010171101565 -1.1714870230245715 L 0.4519818870521658 -1.158897097192906 Q 0.44051833093728443 -1.180076966909242 0.42342035183798565 -1.2071307856918083 Q 0.40632237273868693 -1.2341846044743747 0.37855032608645445 -1.277557561772053 Q 0.3507782794342219 -1.3209305190697314 0.30753462114284913 -1.3870439520283895 L 0.326782835801699 -1.399633877860055 Q 0.366257964650626 -1.3465894228966886 0.4132150388466907 -1.30859556572286 Q 0.4601721130427554 -1.2706017085490315 0.5115505334111907 -1.2623853881777 Q 0.5629289537796259 -1.2541690678063688 0.6164892032651211 -1.289201904903177 Q 0.660006905972086 -1.3176660850443338 0.6748076800778234 -1.3608046650611927 Q 0.6896084541835609 -1.4039432450780516 0.6589547217238536 -1.45080846337786 Q 0.6250166607863205 -1.5026949550669333 0.5676985298361402 -1.5135982510996928 Q 0.51038039888596 -1.5245015471324521 0.43160870417962494 -1.5243597264994357 Q 0.37530636549494784 -1.5245757326010039 0.3240253001995359 -1.5280760671803977 Q 0.272744234904124 -1.5315764017597917 0.2303451787124527 -1.5516405497371042 Q 0.18794612252078138 -1.571704697714417 0.15783977814071168 -1.6177330371160143 Q 0.123354329123541 -1.6704564077032986 0.12754679719185913 -1.721592727589424 Q 0.13173926526017732 -1.7727290474755493 0.16416446096510293 -1.817238672091999 Q 0.1965896566700286 -1.8617482967084489 0.24512863276625863 -1.8934968053274313 M 0.7074911576260723 -2.1488422969816656 Q 0.7312964387180558 -2.1565435041683116 0.7715235079122382 -2.1702924279096982 Q 0.8117505771064206 -2.184041351651085 0.851162868551698 -2.198555871382461 Q 0.8962054873463006 -2.215143893932606 0.9380873586631125 -2.231633552964921 Q 0.9799692299799245 -2.248123211997236 0.9977985999194547 -2.2546893042566682 Q 1.1282345168454915 -2.3027254528914622 1.2119903905347735 -2.274959401271813 Q 1.2957462642240558 -2.2471933496521643 1.325812055096193 -2.1655536030869467 Q 1.3382530720088015 -2.131771638990995 1.338766201750599 -2.089867144030811 Q 1.3392793314923968 -2.047962649070627 1.3194203945301188 -2.004949597298772 Q 1.299561457567841 -1.961936545526917 1.2523922197233843 -1.9221865392228537 Q 1.205222981878928 -1.8824365329187902 1.1226448474221564 -1.8520251582435248 L 1.0269292824836258 -1.8167756103244672 L 1.0200176064210655 -1.8355433681555515 L 1.1063492924440539 -1.867337078043329 Q 1.161714178045753 -1.8877265224278819 1.1810042460537002 -1.9236033014952503 Q 1.2002943140616475 -1.9594800805626187 1.1958800874768885 -2.0047433615269767 Q 1.1914658608921291 -2.0500066424913346 1.1738410869326006 -2.0978644249606 Q 1.141010625635439 -2.187011274658251 1.0984933259249041 -2.221439159073715 Q 1.0559760262143691 -2.2558670434891788 0.9921656495886821 -2.2323673448764736 Q 0.9555685218180675 -2.2188895765544814 0.9506519857183702 -2.198962768662087 Q 0.945735449618673 -2.1790359607696934 0.9637058073813297 -2.130239790408874 L 1.1330418709140573 -1.6704297235473053 Q 1.14651963923605 -1.6338325957766906 1.160592834627916 -1.6187678962621845 Q 1.174666030019782 -1.6037031967476785 1.1983224543442972 -1.6060212968702976 Q 1.2219788786688124 -1.6083393969929167 1.2645519175918805 -1.622952280242123 L 1.2721547612606967 -1.6023077466279303 Q 1.242719152819388 -1.5925330366225159 1.196392562330103 -1.5765378181607974 Q 1.1500659718408182 -1.560542599699079 1.0993930256968902 -1.541881074330166 Q 1.0590423463600587 -1.5270209707956615 1.0209140266094636 -1.5119136469758585 Q 0.9827857068588686 -1.4968063231560556 0.9521644902407073 -1.484463669761277 L 0.945252814178147 -1.5032314275923613 Q 0.974590059101626 -1.5161668850755663 0.9875307625477254 -1.5273265532749398 Q 1.000471465993825 -1.5384862214743134 0.9994120909410689 -1.5572779144394935 Q 0.9983527158883128 -1.5760696074046736 0.9859116989757042 -1.6098515715006254 L 0.8145021326242086 -2.075291965711519 Q 0.801715531908472 -2.1100123176990255 0.7905066819501835 -2.12453339488402 Q 0.779297831991895 -2.139054472069015 0.7615681370609182 -2.139451860612505 Q 0.7438384421299415 -2.1398492491559953 0.7144028336886326 -2.130074539150581 L 0.7074911576260723 -2.1488422969816656 M 1.8843926879818094 -2.466463212386179 Q 1.989952440664787 -2.476114047246881 2.073037216488437 -2.440530764285162 Q 2.156121992312088 -2.4049474813234433 2.2072684199001777 -2.3287878270110958 Q 2.258414847488268 -2.2526281726987483 2.268885092856011 -2.1381057995049515 Q 2.2790822013880736 -2.0265709664814278 2.2419169302330264 -1.9388227891785812 Q 2.2047516590779788 -1.8510746118757344 2.128865141601312 -1.7969406441173714 Q 2.052978624124645 -1.7428066763590082 1.9504064116119397 -1.7334289783339862 Q 1.844846658928962 -1.7237781434732842 1.7617618831053117 -1.7593614264350033 Q 1.6786771072816613 -1.7949447093967223 1.6274851568876243 -1.8716022870707818 Q 1.5762932064935875 -1.9482598647448415 1.565914006737738 -2.0617863912152137 Q 1.5557168982056753 -2.173321224238738 1.5933800927224349 -2.261114924347531 Q 1.6310432872391945 -2.348908624456324 1.7059339579924373 -2.402951546602794 Q 1.78082462874568 -2.4569944687492637 1.8843926879818094 -2.466463212386179 M 1.8820481221021934 -2.4481737889169675 Q 1.8262807055904315 -2.4430752346509363 1.789050119103526 -2.394483739203265 Q 1.7518195326166206 -2.345892243755594 1.7366055846791533 -2.265171826337471 Q 1.7213916367416862 -2.1844514089193474 1.7308603803786013 -2.0808833496832184 Q 1.7405112152393036 -1.9753235970002405 1.773052387220257 -1.8994712923147135 Q 1.8055935592012102 -1.8236189876291866 1.8527823301756385 -1.7852559860010166 Q 1.8999711011500666 -1.7468929843728467 1.9527509774915557 -1.7517184018031977 Q 2.0085183940033176 -1.756816956069229 2.045748980490223 -1.8054084515169002 Q 2.0829795669771283 -1.8539999469645716 2.098147992108649 -1.9352182877444069 Q 2.1133164172401697 -2.016436628524242 2.1039387192151477 -2.1190088410369468 Q 2.094196838742552 -2.2255644404433492 2.0617011895675454 -2.300918821767164 Q 2.029205540392539 -2.376273203090979 1.9820167694181106 -2.414636204719149 Q 1.9348279984436825 -2.452999206347319 1.8820481221021934 -2.4481737889169675 M 2.532088601223041 -2.4653786097795525 Q 2.55651136510063 -2.4599445869069907 2.5981546634777644 -2.451395569403617 Q 2.6397979618548986 -2.4428465519002436 2.681127244653806 -2.4353705647862958 Q 2.7283607107097008 -2.4268265795132127 2.772820084830291 -2.4198006238625283 Q 2.8172794589508814 -2.412774668211844 2.835976039264673 -2.4093926740412486 Q 2.9727562847182005 -2.384650716687945 3.032555406133439 -2.3275953481590714 Q 3.0923545275486775 -2.2705399796301977 3.0775805530139713 -2.188865444575214 Q 3.071528563445537 -2.155408406118955 3.051611146430873 -2.1239513480959302 Q 3.0316937294162085 -2.092494290072905 2.993477715282283 -2.069428378781226 Q 2.9552617011483577 -2.046362467489547 2.8950729350333404 -2.0394659151949774 Q 2.8348841689183226 -2.032569362900408 2.748289481149183 -2.0482333359010605 L 2.6538225490373937 -2.0653213064472267 L 2.6573825429011784 -2.0850019173038494 L 2.742009169584656 -2.0696939436895754 Q 2.800066971611693 -2.0591919617914107 2.8340848962648004 -2.0759036583628396 Q 2.868102820917908 -2.0926153549342685 2.886094160655062 -2.12746950381876 Q 2.9040855003922164 -2.162323652703251 2.912273486278921 -2.207589057673484 Q 2.9263354620408704 -2.285327470557143 2.90652559349533 -2.3331167905795964 Q 2.8867157249497897 -2.3809061106020493 2.8198016480372727 -2.393010089738917 Q 2.7814244568668585 -2.399952077773297 2.7670821108400836 -2.385270555016844 Q 2.7527397648133083 -2.3705890322603906 2.7434837807674683 -2.319419444033172 L 2.655195932945609 -1.8313402947889283 Q 2.648787943990797 -1.7959151952470076 2.650996117498962 -1.7772236471635063 Q 2.653204291007127 -1.758532099080005 2.66788078153329 -1.7497799207319906 Q 2.682557272059453 -1.741027742383976 2.7136902500436704 -1.7333636911162584 L 2.7101302561798857 -1.7136830802596357 Q 2.6839174309098235 -1.7204571330614071 2.643661178500342 -1.7282471357535814 Q 2.60340492609086 -1.7360371384457554 2.5620756432919523 -1.7435131255597032 Q 2.5148421772360576 -1.7520571108327863 2.4729318793191397 -1.759130082521913 Q 2.431021581402222 -1.7662030542110398 2.406064818445065 -1.7686849854551083 L 2.4096248123088495 -1.788365596311731 Q 2.4414697890658243 -1.784637667215338 2.458282275910258 -1.7876938553812969 Q 2.4750947627546913 -1.790750043547256 2.483710925217669 -1.8074835950056758 Q 2.4923270876806463 -1.8242171464640955 2.498735076635459 -1.8596422460060162 L 2.587022924457318 -2.3477213952502596 Q 2.5936089131053195 -2.384130525335012 2.5913117397505596 -2.402330058147097 Q 2.5890145663958 -2.420529590959183 2.5739350604448163 -2.4298627844252074 Q 2.5588555544938325 -2.439195977891232 2.5285286073592568 -2.4456979989229297 L 2.532088601223041 -2.4653786097795525 M 2.6548804827359485 -2.0824058250617346 Q 2.6970157963844983 -2.073767807711766 2.727478759404111 -2.0652087257478122 Q 2.757941722423724 -2.056649643783858 2.7811134562186983 -2.0499175747902383 Q 2.8042851900136725 -2.043185505796619 2.822803770634275 -2.0388194810831926 Q 2.9109265524863943 -2.014749264660323 2.9482138906106825 -1.9765013311788264 Q 2.9855012287349707 -1.9382533976973297 2.987257644814043 -1.8749295080303392 L 2.9915563789006683 -1.76948036917538 Q 2.9932926660585792 -1.7285171502234313 3.000284976395863 -1.710992664606241 Q 3.0072772867331468 -1.6934681789890504 3.0259738670469383 -1.690086184818455 Q 3.038944263796932 -1.6887562193498262 3.0482875217235375 -1.692655389943289 Q 3.057630779650143 -1.6965545605367516 3.069429081703536 -1.7055988995760019 L 3.081069512984901 -1.691298537357379 Q 3.048982697839594 -1.665599582245723 3.0160747551537743 -1.657833160406369 Q 2.983166812467955 -1.6500667385670147 2.939869468583385 -1.657898725067341 Q 2.886731819270503 -1.6675107084995595 2.856384743214766 -1.6963734002462987 Q 2.8260376671590284 -1.725236091993038 2.8262493121656185 -1.78820398227365 L 2.8263367317135812 -1.8898110310341696 Q 2.8269245050277108 -1.932386311685402 2.8226911899348606 -1.965163270716475 Q 2.81845787484201 -1.9979402297475481 2.804530334666466 -2.019259789420736 Q 2.7906027944909217 -2.0405793490939232 2.7600978476631566 -2.0460973395827895 L 2.6538225490373937 -2.0653213064472267 L 2.6548804827359485 -2.0824058250617346 M 3.95697382091066 -2.0234109599709456 Q 3.932600046433654 -1.9784340868276953 3.9121356755078716 -1.9360966385978835 Q 3.891671304582089 -1.8937591903680717 3.881515066468273 -1.8709151358379437 Q 3.8725775769281143 -1.850812367851431 3.8653663486182666 -1.8321308747027758 Q 3.8581551203084183 -1.8134493815541206 3.8533813891458863 -1.8002504614926964 L 3.8323648589781687 -1.8095942005574073 Q 3.85186962414131 -1.8928502161714802 3.849388677404864 -1.9475776764020711 Q 3.846907730668419 -2.0023051366326623 3.8241679317607744 -2.034849745182157 Q 3.8014281328531294 -2.0673943537316526 3.7593950725176937 -2.0860818318610748 L 3.738378542349976 -2.095425570925786 L 3.50641006383041 -1.5736673654576614 Q 3.4901600828483037 -1.5371168782094564 3.489802070897494 -1.5153885136266565 Q 3.4894440589466846 -1.4936601490438564 3.5078199672048105 -1.478376955801312 Q 3.526195875462936 -1.4630937625587677 3.5659951619114088 -1.4443050212972457 L 3.5578701714203556 -1.4260297776731434 Q 3.529949793327549 -1.4395372751154807 3.483297290520038 -1.4613728878111476 Q 3.436644787712527 -1.4832085005068145 3.38547410556504 -1.505958473881763 Q 3.3352171855987587 -1.5283021977321591 3.290036589195155 -1.5472946622540342 Q 3.2448559927915515 -1.566287126775909 3.217036877830845 -1.5775608503312837 L 3.2251618683218983 -1.595836093955386 Q 3.266687416000681 -1.5784686275317217 3.2903445680779915 -1.5750643426448439 Q 3.3140017201553014 -1.5716600577579662 3.3294368080959957 -1.5866853051856473 Q 3.3448718960366897 -1.6017105526133286 3.3611218770187956 -1.6382610398615334 L 3.5930903555383615 -2.160019245329658 L 3.572987587551849 -2.168956734869816 Q 3.5309545272164136 -2.1876442129992384 3.4915584978021097 -2.182724572119324 Q 3.4521624683878063 -2.177804931239409 3.4105290740980796 -2.143237454040224 Q 3.368895679808353 -2.1086699768410395 3.317916750959685 -2.038312682880552 L 3.2969002207919673 -2.047656421945263 Q 3.3044152384981147 -2.0596365934330296 3.3129971100797704 -2.0777087122948554 Q 3.321578981661426 -2.0957808311566817 3.3305164712015842 -2.1158835991431943 Q 3.3406727093154007 -2.1387276536733224 3.358395793697568 -2.182283850476792 Q 3.376118878079735 -2.225840047280262 3.3931825551070998 -2.2740669166199337 Q 3.4348093659179826 -2.2544656763093065 3.4842031552691095 -2.2314113150399817 Q 3.5335969446202355 -2.208356953770657 3.5838538645865174 -2.1860132299202606 Q 3.6341107845527993 -2.1636695060698647 3.6743163205258247 -2.145794526989548 Q 3.715435618680055 -2.1275132983846787 3.765235657555734 -2.105372699296559 Q 3.8150356964314134 -2.083232100208439 3.8656988659222478 -2.061802138539248 Q 3.9163620354130817 -2.0403721768700573 3.95697382091066 -2.0234109599709456 M 4.3894122798138575 -1.71983128409228 L 4.209230153688868 -1.072946903831728 Q 4.198888713677013 -1.035730581895228 4.204822229310612 -1.0144398939724335 Q 4.210755744944212 -0.993149206049639 4.221370211208377 -0.9839659002218393 L 4.209395407622079 -0.9679470338740106 Q 4.186564588458966 -0.9875111258882396 4.15442575419427 -1.0121605748091875 Q 4.122286919929575 -1.0368100237301354 4.089448243916526 -1.061358371082045 Q 4.05260485131652 -1.0889004193305292 4.019466805213813 -1.113048295023743 Q 3.986328759111107 -1.1371961707169569 3.965908639135083 -1.149964048385731 L 3.9778834427213803 -1.1659829147335596 Q 4.019929032266973 -1.1370490522232841 4.0400222398311385 -1.1413806812221008 Q 4.060115447395303 -1.1457123102209172 4.074632330192532 -1.198535222994178 L 4.216886149617403 -1.6727596960647233 L 4.2468703739926355 -1.6828068990892329 L 3.8880258787404487 -1.4566418526580844 Q 3.8212926925841884 -1.4141367721919347 3.7989410374289188 -1.3834015560414026 Q 3.7765893822736496 -1.3526663398908707 3.7877290294702934 -1.3274838408025293 Q 3.7988686766669373 -1.302301341714188 3.829708929003965 -1.2767498479068105 L 3.8177341254176675 -1.2607309815589818 Q 3.7925004763023797 -1.2820912941111553 3.768771546870294 -1.300453971149297 Q 3.7450426174382083 -1.3188166481874388 3.720213374599074 -1.3373775937461998 Q 3.7025926216164624 -1.3505498776911269 3.686674856837672 -1.3618248395290713 Q 3.6707570920588815 -1.3730998013670155 3.6575454619393803 -1.3804790174219557 L 3.669520265525678 -1.3964978837697843 Q 3.688735035908157 -1.3871281132737379 3.720126813015011 -1.3923775256288138 Q 3.7515185901218646 -1.3976269379838897 3.8012691096494025 -1.4291052766748062 L 4.334147190913848 -1.761144356465006 Q 4.346363543812797 -1.7507635702785764 4.361180995184538 -1.7396868769612515 Q 4.375998446556279 -1.7286101836439265 4.3894122798138575 -1.71983128409228 M 4.192809956360383 -1.3399213916010533 L 4.180835152774086 -1.3239025252532246 L 3.9421540441914376 -1.5023270986890556 L 3.9621382809516494 -1.5123585632437355 L 4.192809956360383 -1.3399213916010533 M 5.132265698198581 -0.952225820602274 Q 5.090536501151973 -0.9226340292768845 5.053480415645585 -0.89368413243867 Q 5.0164243301391975 -0.8647342356004553 4.997224656046004 -0.848722598747367 Q 4.980328942843995 -0.8346323583166492 4.965609669043564 -0.8210550618704507 Q 4.950890395243134 -0.8074777654242523 4.940779043225069 -0.7977432618227951 L 4.9260483373202275 -0.8154069619885325 Q 4.980311794687379 -0.881493853234553 5.00225175179401 -0.9316923420779353 Q 5.024191708900641 -0.9818908309213175 5.0181596155368595 -1.0211319299075923 Q 5.012127522173078 -1.060373028893867 4.982666110363395 -1.095700429225342 L 4.9679354044585535 -1.1133641293910794 L 4.5294148481700285 -0.7476583436665407 Q 4.49869536962092 -0.7220397247015993 4.488779586876416 -0.7027025260274429 Q 4.478863804131912 -0.6833653273532866 4.488602594772522 -0.6615386016057462 Q 4.498341385413133 -0.6397118758582058 4.525753879310842 -0.6052799839800628 L 4.510394140036287 -0.592470674497592 Q 4.491307697302186 -0.6169187358472747 4.459091712348551 -0.6571105299533756 Q 4.426875727394917 -0.6973023240594765 4.391009660843999 -0.7403095940282285 Q 4.355784059767204 -0.7825488770332528 4.3236332645714235 -0.8195397727817874 Q 4.291482469375643 -0.8565306685303219 4.271500518188208 -0.8789298119680298 L 4.286860257462763 -0.8917391214505005 Q 4.316449190762049 -0.8578201735568769 4.336171811931121 -0.8443194989729423 Q 4.355894433100192 -0.8308188243890079 4.376377896167735 -0.837484238161657 Q 4.396861359235277 -0.8441496519343059 4.427580837784387 -0.8697682708992474 L 4.866101394072912 -1.235474056623786 L 4.852011153642194 -1.2523697698257958 Q 4.822549741832511 -1.2876971701572708 4.785030182955893 -1.3006791847044807 Q 4.747510624079275 -1.3136611992516904 4.694892084959515 -1.301030310886164 Q 4.642273545839757 -1.2883994225206379 4.565466275388677 -1.247783622567236 L 4.550735569483836 -1.2654473227329737 Q 4.562768317924271 -1.2728778654432475 4.578448289935887 -1.2853031814438545 Q 4.594128261947503 -1.2977284974444614 4.611023975149513 -1.311818737875179 Q 4.630223649242706 -1.3278303747282676 4.6653583383267225 -1.3590842324576653 Q 4.70049302741074 -1.390338090187063 4.737098500664359 -1.4260737772222742 Q 4.765791925510315 -1.3901059114166758 4.79992930688632 -1.3476101564193916 Q 4.834066688262324 -1.3051144014221077 4.869292289339119 -1.2628751184170834 Q 4.904517890415914 -1.220635835412059 4.932698371277349 -1.1868444090080397 Q 4.9615193176129075 -1.1522849956402923 4.996424685952641 -1.110429706117132 Q 5.031330054292374 -1.0685744165939715 5.067323642332895 -1.0269755990630707 Q 5.103317230373418 -0.9853767815321699 5.132265698198581 -0.952225820602274 M 5.397852468318318 -0.48283231922726416 L 5.3803191863037485 -0.47321026010264966 Q 5.364047227603637 -0.5007824083697299 5.350410712171095 -0.51212019681625 Q 5.336774196738553 -0.52345798526277 5.319027060194651 -0.5194220040323747 Q 5.301279923650749 -0.5153860228019793 5.268843351923795 -0.4975852134214425 L 4.834017957962475 -0.25895814713100274 Q 4.8024580503362495 -0.2416384407066966 4.789324162782406 -0.22815693494053693 Q 4.776190275228562 -0.21467542917437732 4.778627937923884 -0.19776218582533742 Q 4.781065600619204 -0.18084894247629751 4.794707567017131 -0.15183348534052504 L 4.777174285002561 -0.14221142621591054 Q 4.765937833385788 -0.1668435628480407 4.746650944230693 -0.20302734245602333 Q 4.727364055075597 -0.23921112206400597 4.707157730913907 -0.2760310142946017 Q 4.6835836860586015 -0.3189875552302967 4.663179581324662 -0.3551285639324129 Q 4.642775476590723 -0.391269572634529 4.628513471527267 -0.4131006333410077 L 4.646046753541836 -0.4227226924656223 Q 4.663195376342676 -0.39563164715477267 4.676153008246739 -0.3844916392805015 Q 4.689110640150801 -0.37335163140623034 4.707536660223183 -0.37718983206437684 Q 4.725962680295564 -0.3810280327225233 4.757522587921789 -0.3983477391468294 L 5.19234798188311 -0.6369748054372693 Q 5.224784553610064 -0.6547756148178061 5.237480109113543 -0.6680165691058504 Q 5.250175664617022 -0.6812575233938946 5.2479357824939505 -0.6988496502714141 Q 5.245695900370878 -0.7164417771489335 5.231658372828454 -0.7440994672277468 L 5.249191654843024 -0.7537215263523613 Q 5.260823667604294 -0.7304471567771904 5.279912776187141 -0.6935844936407282 Q 5.299001884769988 -0.6567218305042659 5.322575929625293 -0.6137652895685709 Q 5.342782253786983 -0.5769453973379752 5.363384139093172 -0.5414832721643387 Q 5.38398602439936 -0.5060211469907021 5.397852468318318 -0.48283231922726416 M 5.627913535754122 0.07806869105869294 Q 5.6580386883943605 0.17969779701954625 5.639405651399853 0.2681402072782074 Q 5.620772614405347 0.3565826175368685 5.556096800125363 0.42164634819551683 Q 5.49142098584538 0.4867100788541652 5.38116299352936 0.5193930274732915 Q 5.273781296665062 0.5512233774327885 5.180456044122398 0.5319517081265771 Q 5.0871307915797335 0.512680038820366 5.0191907654693635 0.4488568232000122 Q 4.951250739358993 0.3850336075796584 4.921978185378384 0.28628079707052734 Q 4.891853032738146 0.18465169110967405 4.910486069732653 0.09620928085101291 Q 4.9291191067271605 0.007766870592351774 4.99427430358243 -0.05743895984290142 Q 5.059429500437701 -0.12264479027815461 5.168728727603146 -0.15504353934407114 Q 5.276110424467444 -0.1868738893035681 5.369577776786714 -0.16712283742206982 Q 5.463045129105982 -0.1473717855405715 5.530700955663143 -0.08450733507079186 Q 5.5983567822203035 -0.021642884601012186 5.627913535754122 0.07806869105869294 M 5.60951896483095 0.07934922241417292 Q 5.593603789851201 0.025658373982023974 5.538665076617161 -0.0013413998723599274 Q 5.483726363383121 -0.02834117372674383 5.401589426540547 -0.027461624911087085 Q 5.319452489697974 -0.026582076095430313 5.219740914038269 0.002974677438388279 Q 5.1181118080774155 0.033099830078626435 5.0500958323642 0.07985800634523454 Q 4.982079856650983 0.12661618261184263 4.9536950183162105 0.18040094767323173 Q 4.925310179981437 0.23418571273462074 4.9403727563015565 0.28500026571504744 Q 4.956287931281305 0.3386911141471963 5.011226644515346 0.3656908880015803 Q 5.066165357749386 0.39269066185596424 5.148781677167246 0.3916690132637025 Q 5.231397996585107 0.3906473646714409 5.330150807094238 0.3613748106908321 Q 5.4327386782056655 0.3309654584973841 5.500275271343594 0.2843493820073809 Q 5.5678118644815235 0.2377333055173777 5.596196702816296 0.18394854045598863 Q 5.624581541151069 0.13016377539459956 5.60951896483095 0.07934922241417292 M 5.763606685343269 1.3764696825389926 L 5.743608187857051 1.3767148320724134 Q 5.7392162491063345 1.3447662660011488 5.726521068550712 1.3289206864705623 Q 5.713825887995089 1.313075106939976 5.686760500267004 1.3079064720013838 Q 5.65969511253892 1.3027378370627916 5.6106987936976855 1.3033384534196721 L 5.052740713832206 1.310178125402106 Q 5.0535935489864645 1.2981667694337045 5.053440330528077 1.285667708504818 Q 5.053287112069689 1.273168647575932 5.052115582521984 1.2591819568122506 L 5.596754518517749 0.8184729491922561 L 5.212783366782365 0.8231798202339312 Q 5.157787498695266 0.8238539814508379 5.1283632597631215 0.8302151262584986 Q 5.098939020830976 0.8365762710661593 5.086691238173846 0.8572279494479205 Q 5.0744434555167155 0.8778796278296817 5.069983160118687 0.9219376096827162 L 5.049984662632469 0.9221827592161368 Q 5.051751620324341 0.9031596716508877 5.051871600984694 0.8721558718089144 Q 5.051991581645048 0.8411520719669412 5.05166062977493 0.814154100360547 Q 5.051378707811496 0.7911558282513964 5.050584565934236 0.7671637600062705 Q 5.049790424056976 0.7431716917611445 5.047594454681618 0.7271974087255123 L 5.067592952167836 0.7269522591920917 Q 5.072984815792863 0.7588885677866852 5.085180033911331 0.7747402760556071 Q 5.0973752520297975 0.7905919843245292 5.124940602195038 0.7957544905247858 Q 5.152505952360278 0.8009169967250424 5.200502346327202 0.800328637844833 L 5.650468539767104 0.79481277334287 Q 5.687465760116607 0.794359246706042 5.704897029295357 0.788645154055589 Q 5.722328298474107 0.7829310614051361 5.728625561792056 0.7663526273806446 Q 5.734922825110005 0.7497741933561531 5.735542768207514 0.7187642647758444 L 5.755541265693732 0.7185191152424238 Q 5.754737460446157 0.7345301707080691 5.754031715011951 0.7585406251682016 Q 5.753325969577745 0.7825510796283341 5.753607891541178 0.8055493517374848 Q 5.753902070981283 0.8295475487209463 5.755171660342357 0.8515336384791149 Q 5.75644124970343 0.8735197282372835 5.7576618091578196 0.8915061184982087 L 5.285441287583211 1.2843238612286059 L 5.598417773242521 1.280487271030574 Q 5.65341364132962 1.2798131098136671 5.682837880261766 1.2734519650060065 Q 5.712262119193911 1.2670908201983457 5.725009864288197 1.246433013078249 Q 5.7377576093824825 1.2257752059581524 5.7412179799062 1.181729481581789 L 5.761216477392418 1.1814843320483681 Q 5.760449444574856 1.2004951621369462 5.7598295014773475 1.2315050907172551 Q 5.759209558379839 1.2625150192975638 5.759540510249956 1.289512990903958 Q 5.759834689690061 1.3135111878874195 5.761122665266141 1.3369971649570545 Q 5.762410640842221 1.3604831420266894 5.763606685343269 1.3764696825389926" fill="#fcf7ee" fill-rule="nonzero"></path></g><g clip-path="url(#SvgjsClipPath58434)"><g clip-path="url(#SvgjsClipPath58430a9a78064-0270-4423-8970-cba1c648cc8f)"><path d=" M 1.2542887369091864 1.8532738211554105 C 1.2541238442025306 1.7596399434759848 1.2820009178431342 1.6681017707579233 1.3343280460285787 1.5904538352106408 L 0.8957853950625945 1.5904538352106408 L 0.8957853950625945 1.858803809785479 L 1.2543614999174775 1.858803809785479 C 1.254434262925767 1.8569847345782189 1.2542887369091864 1.8551656593709587 1.2542887369091864 1.8532738211554105 Z" fill="#769687" transform="matrix(1,0,0,1,0,0)" fill-rule="nonzero"></path></g><g clip-path="url(#SvgjsClipPath58430a9a78064-0270-4423-8970-cba1c648cc8f)"><path d=" M 4.243320354468791 1.2368983779277907 C 4.263985048823252 1.2368983779277907 4.350791317713649 1.2334785165381432 4.409656591420548 1.2397361352511143 L 4.409656591420548 1.175413635922438 C 4.409656591420548 1.061321238923158 4.362651688064977 1.0343989258557245 4.315064680643084 1.0095139770204224 C 4.2674776732211885 0.9846290281851205 4.012516092171776 0.9287470378181253 3.9807914205571793 0.9221983670719933 C 3.949066748942583 0.9156496963258612 3.9511768761830037 0.9260548065113821 3.8847442496139064 0.873519914525744 C 3.818311623044809 0.820985022540105 3.4680305011350288 0.3014571433469512 3.3458614102155178 0.1482182478874588 C 3.223692319296008 -0.0050206475720343865 3.081222349063488 0.0003638150414512563 2.973023755735725 0.0003638150414512563 L 2.6255803911492683 0.0003638150414512563 L 2.6255803911492683 1.562949418076882 L 3.1494740508398436 1.562949418076882 C 3.178579254155988 1.562949418076882 3.177851624073084 1.590308309194057 3.15485851345333 1.590308309194057 L 2.116966963199668 1.590308309194057 C 2.169298158258491 1.6679543086396187 2.197175620717393 1.7594937580955736 2.19700627231906 1.8531282951388284 C 2.19700627231906 1.8550201333543765 2.19700627231906 1.8568392085616368 2.19700627231906 1.8586582837688954 L 3.193859485896961 1.8586582837688954 C 3.193859485896961 1.8568392085616368 3.193859485896961 1.8550201333543765 3.193859485896961 1.8531282951388284 C 3.193859482349287 1.684780016241087 3.2836722180563593 1.5292197897825823 3.429466103874573 1.445045649193736 C 3.575259989692788 1.3608715086048866 3.7548854654778485 1.3608715086048866 3.9006793512960636 1.445045649193736 C 4.046473237114277 1.5292197897825823 4.13628597282135 1.684780016241087 4.136285969273674 1.8531282953705315 C 4.136285969273674 1.8550201333543765 4.136285969273674 1.8568392085616368 4.136285969273674 1.8586582837688954 L 4.409656591420548 1.8586582837688954 L 4.409656591420548 1.3584853647809767 L 4.2590371642595075 1.3584853647809767 C 4.232114851192075 1.3584853647809767 4.20679332430703 1.3110438833756624 4.20679332430703 1.2897970849548777 C 4.20679332430703 1.268550286534093 4.2208365849070715 1.2368983779277907 4.243320354468791 1.2368983779277907 Z M 3.023594046497524 0.9082278694802439 C 3.006713028574162 0.9082278694802439 2.9939067391150593 0.9090282625714382 2.9939067391150593 0.8889456722832999 C 2.9939067391150593 0.8688630819951608 3.000309883844611 0.4494571022095392 2.9995094907534154 0.43417687046856374 C 2.9987090976622204 0.41889663872758903 2.9995094907534154 0.3964128691658677 3.0195920810415546 0.3964128691658677 L 3.3522645549450707 0.3964128691658677 L 3.724811157391702 0.9082278694802439 Z" fill="#769687" transform="matrix(1,0,0,1,0,0)" fill-rule="nonzero"></path></g><g clip-path="url(#SvgjsClipPath58430a9a78064-0270-4423-8970-cba1c648cc8f)"><path d=" M 1.725501978597543 1.5304243533710933 C 1.5949215581218537 1.5304243533710917 1.4771989267367667 1.6090841008622565 1.4272279632294513 1.729724678686465 C 1.3772569997221376 1.8503652565106734 1.4048786298162337 1.989228568319618 1.4972129306247846 2.081562869128169 C 1.589547231433337 2.17389716993672 1.72841054324228 2.201518800030816 1.8490511210664886 2.1515478365235023 C 1.969691698890697 2.10157687301619 2.0483514463818615 1.9838542416310998 2.04835144638186 1.8532738211554105 C 2.048311277810694 1.6749856246248973 1.9037901751282207 1.53046452194235 1.7255019785976244 1.5304243533710933 Z M 1.725501978597543 1.9688942413287898 C 1.6616465837667584 1.9688942413287898 1.6098815584241637 1.9171292159861968 1.6098815584241637 1.853273821155412 C 1.6098815584241637 1.789418426324626 1.6616465837667584 1.7376534009820344 1.725501978597543 1.7376534009820328 C 1.789357373428329 1.7376534009820328 1.8411223987709207 1.789418426324626 1.8411223987709222 1.8532738211554105 C 1.8411223987709222 1.8839382631475685 1.8289409966197314 1.9133467694296906 1.8072579617457771 1.9350298043036462 C 1.7855749268718213 1.956712839177602 1.7561664205896979 1.9688942413287913 1.7255019785975414 1.9688942413287913 Z" fill="#769687" transform="matrix(1,0,0,1,0,0)" fill-rule="nonzero"></path></g><g clip-path="url(#SvgjsClipPath58430a9a78064-0270-4423-8970-cba1c648cc8f)"><path d=" M 3.665218253601898 1.5304243533710933 C 3.534637833126209 1.5304243533710917 3.416915201741122 1.6090841008622565 3.3669442382338066 1.729724678686465 C 3.3169732747264926 1.8503652565106734 3.344594904820589 1.989228568319618 3.4369292056291396 2.081562869128169 C 3.529263506437692 2.17389716993672 3.6681268182466353 2.201518800030816 3.7887673960708437 2.1515478365235023 C 3.909407973895052 2.10157687301619 3.988067721386217 1.9838542416310998 3.9880677213862152 1.8532738211554105 C 3.988067718729267 1.674968978796313 3.843523086339334 1.5304243507141448 3.66521824879107 1.5304243533710933 Z M 3.665218253601898 1.9688942413287898 C 3.6013628587711133 1.9688942413287898 3.5495978334285203 1.9171292159861968 3.5495978334285203 1.853273821155412 C 3.5495978334285203 1.789418426324626 3.6013628587711133 1.7376534009820344 3.665218253601898 1.7376534009820328 C 3.729073648432684 1.7376534009820328 3.7808386737752757 1.789418426324626 3.7808386737752775 1.8532738211554105 C 3.780857993693266 1.8839441818351077 3.768682795787349 1.9133639146992651 3.7469955714665453 1.9350511390200655 C 3.72530834714574 1.9567383633408677 3.6958886142815843 1.9689135612467816 3.665218253601892 1.9688942413287913 Z" fill="#769687" transform="matrix(1,0,0,1,0,0)" fill-rule="nonzero"></path></g><g clip-path="url(#SvgjsClipPath58430a9a78064-0270-4423-8970-cba1c648cc8f)"><path d=" M 0.659669433160383 1.0600842677822218 L 2.468412293242095 1.0600842677822218 L 2.468412293242095 1.0600842677822218 L 2.468412293242095 1.4384519108920817 L 2.468412293242095 1.4384519108920817 L 0.659669433160383 1.4384519108920817 C 0.555186093600885 1.4384519108920817 0.47048561160545294 1.3537514288966497 0.47048561160545294 1.2492680893371517 L 0.47048561160545294 1.2492680893371517 C 0.47048561160545294 1.1447847497776538 0.5551860936008849 1.0600842677822218 0.659669433160383 1.0600842677822218 Z" fill="#769687" transform="matrix(1,0,0,1,0,0)" fill-rule="nonzero"></path></g><g clip-path="url(#SvgjsClipPath58430a9a78064-0270-4423-8970-cba1c648cc8f)"><path d=" M 0.39292024476793164 0.5300785153952561 L 2.4681212412089333 0.5300785153952561 L 2.4681212412089333 0.5300785153952561 L 2.4681212412089333 0.9084461585051162 L 2.4681212412089333 0.9084461585051162 L 0.39292024476793164 0.9084461585051162 C 0.2884369052084336 0.9084461585051162 0.20373642321300162 0.8237456765096841 0.20373642321300156 0.719262336950186 L 0.20373642321300156 0.719262336950186 C 0.20373642321300156 0.6147789973906882 0.28843690520843357 0.5300785153952561 0.3929202447679316 0.5300785153952561 Z" fill="#8fb0a1" transform="matrix(1,0,0,1,0,0)" fill-rule="nonzero"></path></g><g clip-path="url(#SvgjsClipPath58430a9a78064-0270-4423-8970-cba1c648cc8f)"><path d=" M 0.18918382155493005 1.9583132246609296e-16 L 2.468412293242095 1.9583132246609296e-16 L 2.468412293242095 1.9583132246609296e-16 L 2.468412293242095 0.37836764310986026 L 2.468412293242095 0.37836764310986026 L 0.18918382155493005 0.37836764310986026 C 0.08470048199543208 0.37836764310986026 2.5850613486382808e-17 0.29366716111442825 0 0.18918382155493027 L 0 0.18918382155493024 C 0 0.08470048199543227 0.08470048199543201 2.216819359524758e-16 0.18918382155493002 1.9583132246609296e-16 Z" fill="#769687" transform="matrix(1,0,0,1,0,0)" fill-rule="nonzero"></path></g></g><g><path d=" M -0.389498221882838 1.0880616444698643 A 2.5943628990972574 2.5943628990972574 0 0 1 4.799227576311677 1.0880616444698643 A 2.5943628990972574 2.5943628990972574 0 0 1 -0.389498221882838 1.0880616444698643 Z M -0.33949822188283774 1.0880616444698643 A 2.5443628990972575 2.5443628990972575 0 0 0 4.749227576311677 1.0880616444698643 A 2.5443628990972575 2.5443628990972575 0 0 0 -0.3394982218828382 1.0880616444698643 Z" fill="#fcf7ee" fill-rule="nonzero"></path></g><g><path d=" M -1.7647526653161192 1.0880616444698643 A 3.9696173425305386 3.9696173425305386 0 0 1 6.174482019744958 1.0880616444698643 A 3.9696173425305386 3.9696173425305386 0 0 1 -1.7647526653161192 1.0880616444698643 Z M -1.7147526653161194 1.0880616444698643 A 3.9196173425305387 3.9196173425305387 0 0 0 6.124482019744958 1.0880616444698643 A 3.9196173425305387 3.9196173425305387 0 0 0 -1.7147526653161194 1.0880616444698643 Z" fill="#fcf7ee" fill-rule="nonzero"></path></g><g transform="matrix(-0.4797408052054794,-0.8774102574171323,0.8774102574171323,-0.4797408052054794,-3.1283701110275284,2.594850632299975)"><g clip-path="url(#SvgjsClipPath58435)"><path d=" M -0.7245956822401527 2.246303660341635 L -0.7379281858115811 2.258812310341635 C -0.7488250997401527 2.269938974984492 -0.7606793083115813 2.2800851378416347 -0.7733538893830098 2.289132442484492 C -0.7804158229544383 2.293882944627349 -0.7887019333115812 2.2964821446273493 -0.7972108322401527 2.296616746055921 C -0.808482541525867 2.2967130556987776 -0.8193782950972955 2.2925717410559208 -0.8277398286687241 2.285013174627349 C -0.8317836733115812 2.2818430789130635 -0.8350709650972955 2.2778131585559205 -0.8373649911687241 2.273214663198778 C -0.8396590172401527 2.268617328198778 -0.8409017597401527 2.2635674539130637 -0.8410027108115812 2.258429392484492 C -0.8411964904544383 2.251721367841635 -0.8388931815258669 2.245180434627349 -0.834539521525867 2.240072542484492 C -0.832653941168724 2.237722819270206 -0.8302612847401527 2.2358291164130635 -0.8275402472401526 2.234532997484492 C -0.8248203700972955 2.2332368785559207 -0.8218417333115813 2.2325719939130635 -0.8188282858115812 2.2325882389130633 C -0.8143458261687241 2.232893412841635 -0.8099852040258669 2.234186050698778 -0.8060597158115812 2.2363721635559206 C -0.8021342275972955 2.238559436770206 -0.7987401829544384 2.241585648198778 -0.7961200965258669 2.2452361317702065 C -0.7977353136687241 2.2449251560559205 -0.7993725775972955 2.2447418196273494 -0.8010168036687241 2.2446907639130633 C -0.8080752561687241 2.244555002127349 -0.814939929025867 2.2469975539130633 -0.820325146525867 2.2515600781987777 C -0.8228408008115813 2.2534897521273494 -0.8248807086687241 2.255969435341635 -0.8262882218830098 2.2588099896273492 C -0.8276957350972955 2.2616493835559206 -0.8284348825972955 2.2647742253416348 -0.828447646525867 2.2679443210559205 C -0.8284696933115812 2.2698635517702064 -0.8280937375972955 2.271766537484492 -0.8273453072401526 2.2735337614130633 C -0.8265968768830098 2.275300985341635 -0.825491056525867 2.276894155698778 -0.8240963072401526 2.2782134817702064 C -0.8227758208115812 2.2795792221273494 -0.8211919333115812 2.280661835341635 -0.8194409543830098 2.281398662127349 C -0.8176899754544383 2.282134328555921 -0.8158078761687241 2.2825079635559207 -0.8139083715258669 2.2824951996273493 C -0.8035742308115812 2.2824951996273493 -0.7858938690258669 2.2695769435559208 -0.7608684465258669 2.2437392710559205 L -0.7498566572401526 2.2324489960559206 C -0.7607257225972954 2.2256086906987775 -0.772579931168724 2.2204741103416348 -0.7850038750972955 2.217225110341635 C -0.7977585208115812 2.213219557484492 -0.8110109597401527 2.211019520341635 -0.8243747929544384 2.210692299627349 C -0.8424371443115812 2.210133007484492 -0.8600185276330098 2.216563706770206 -0.8734582482044384 2.228643024627349 C -0.8798048215972956 2.234216219984492 -0.8848581769544384 2.2411075810559207 -0.8882653336330097 2.248835559627349 C -0.8916724903115812 2.256563538198778 -0.893351295025867 2.264942477127349 -0.8931843196330098 2.273386396055921 C -0.8932108918115812 2.2773037617702063 -0.8927074128472955 2.2812072031987776 -0.891687458918724 2.284989967484492 C -0.9109029732044384 2.2815402256987776 -0.9205107303472955 2.273107910341635 -0.9205107303472955 2.2596941817702065 C -0.920162507168724 2.2506387546273494 -0.9175460178472955 2.241816559270206 -0.912901340275867 2.2340352042702065 C -0.9082565466687241 2.2262538492702064 -0.9017322065615813 2.2197639717702065 -0.8939269482044384 2.2151596746273494 C -0.8755311102044384 2.2023969064130635 -0.8535587033830098 2.195802596770206 -0.8311744858115813 2.196327078198778 C -0.8119612922401527 2.1976614889130635 -0.7931344975972955 2.202374859627349 -0.7755585679544383 2.2102513639130636 L -0.7853519822401527 2.200724831770206 C -0.7948135343830098 2.1914129656987775 -0.8053275304544384 2.183234768555921 -0.8166816250972955 2.176357563841635 C -0.8242935679544383 2.1709910280916347 -0.8331308479544384 2.167623091484492 -0.8423837678830098 2.166563917484492 C -0.8470607033830098 2.166426531198778 -0.8516274049544383 2.1679984670202064 -0.8552290374901527 2.170984994234492 C -0.8568685060972955 2.1722663766273493 -0.8581925896330098 2.173906309377349 -0.8590997568472956 2.1757790097702063 C -0.8600069240615812 2.177651594127349 -0.8604728074544383 2.179707282841635 -0.860462132168724 2.1817878031987776 C -0.8604308025258669 2.183158184984492 -0.860295156775867 2.184522764984492 -0.8600561232044384 2.1858722603416347 C -0.8725647732044384 2.181161210341635 -0.8788189821687241 2.175088945377349 -0.8788189821687241 2.167654885270206 C -0.8787449513830098 2.164973648020206 -0.8779890947401526 2.1623554181630635 -0.8766227742044383 2.1600471196987776 C -0.8752565697044383 2.1577389372702065 -0.8733249231687241 2.1558163415202065 -0.8710100106687241 2.154461392484492 C -0.8653606958830098 2.150703923984492 -0.8586801717044383 2.1488016344844922 -0.8518988124901526 2.1490194335202064 C -0.8345859358115812 2.1490194335202064 -0.8091590297401526 2.1654268835202064 -0.7756165858115812 2.198241667484492 L -0.7661016572401527 2.2076289567702063 C -0.7590269597401527 2.2145980617702063 -0.7513848475972955 2.220967262127349 -0.7432542250972954 2.2266704174844922 C -0.7375104572401526 2.219781377127349 -0.730425316525867 2.214129277484492 -0.7224316161687241 2.210061065341635 C -0.7144367554544383 2.2059916928416348 -0.7056981058115812 2.203589753555921 -0.6967471108115812 2.2029991317702065 C -0.6882892675972955 2.202709042484492 -0.6799950347401527 2.2053801846273493 -0.6732962929544384 2.2105530567702063 C -0.6703663911687241 2.2126811517702065 -0.6679806968830098 2.2154729710559207 -0.6663376311687241 2.218699924270206 C -0.6646934050972955 2.221926877484492 -0.6638382218830098 2.2254972964130637 -0.6638393822401527 2.2291187710559206 C -0.6638138543830098 2.232642775698778 -0.6646191422401526 2.2361238471273492 -0.6661891054544384 2.239278858198778 C -0.667759068668724 2.242433869270206 -0.6700519343830098 2.245174632841635 -0.6728785643830097 2.247278360341635 C -0.6793475554544384 2.2522748581987777 -0.6873609818830098 2.254848530341635 -0.6955287358115811 2.2545537996273493 C -0.705748001168724 2.254230059984492 -0.7157305536687241 2.251396467841635 -0.7245956822401527 2.246303660341635 L -0.7245956822401527 2.246303660341635 Z M -0.7176335393830098 2.239910092484492 C -0.7112747822401526 2.2425371410559207 -0.7045122208115813 2.2440560485559207 -0.6976405858115813 2.2444006746273493 C -0.6926406068830098 2.2447174521273494 -0.6876452693830097 2.2437091017702064 -0.6831593286687241 2.2414765746273493 C -0.6816253365258669 2.240600504984492 -0.6803628679544383 2.239318310341635 -0.6795111658115812 2.2377703939130633 C -0.6786594636687241 2.236222477484492 -0.6782521783115812 2.234469177841635 -0.6783322429544383 2.2327042746273493 C -0.6782568197401526 2.231527672484492 -0.6784784479544383 2.230349909984492 -0.6789774015258669 2.2292812210559205 C -0.6794751947401527 2.2282125321273494 -0.6802363890258669 2.227286567127349 -0.6811867215258669 2.226589192484492 C -0.6838114493830098 2.225037794984492 -0.6868481040258669 2.2243253356987776 -0.6898894000972955 2.2245469639130633 C -0.700801398668724 2.225841922484492 -0.7107711872401526 2.231357099984492 -0.7176683500972955 2.239910092484492 L -0.7176335393830098 2.239910092484492 Z" fill="#fcf7ee" transform="matrix(1,0,0,1,0,0)" fill-rule="nonzero"></path></g></g><g transform="matrix(0.4797408052054794,-0.8774102574171323,-0.8774102574171323,-0.4797408052054794,4.659901037163156,7.858861524149556)"><g clip-path="url(#SvgjsClipPath58436)"><path d=" M 5.274890700954706 2.246303660341635 L 5.261558197383278 2.258812310341635 C 5.250661283454706 2.269938974984492 5.238807074883277 2.2800851378416347 5.226132493811849 2.289132442484492 C 5.21907056024042 2.293882944627349 5.210784449883278 2.2964821446273493 5.202275550954706 2.296616746055921 C 5.191003841668992 2.2967130556987776 5.180108088097563 2.2925717410559208 5.171746554526134 2.285013174627349 C 5.167702709883277 2.2818430789130635 5.164415418097563 2.2778131585559205 5.162121392026134 2.273214663198778 C 5.159827365954706 2.268617328198778 5.158584623454706 2.2635674539130637 5.158483672383277 2.258429392484492 C 5.15828989274042 2.251721367841635 5.160593201668991 2.245180434627349 5.164946861668992 2.240072542484492 C 5.166832442026134 2.237722819270206 5.169225098454706 2.2358291164130635 5.171946135954705 2.234532997484492 C 5.174666013097563 2.2332368785559207 5.177644649883277 2.2325719939130635 5.180658097383278 2.2325882389130633 C 5.185140557026134 2.232893412841635 5.189501179168992 2.234186050698778 5.193426667383277 2.2363721635559206 C 5.197352155597563 2.238559436770206 5.20074620024042 2.241585648198778 5.203366286668992 2.2452361317702065 C 5.201751069526134 2.2449251560559205 5.200113805597563 2.2447418196273494 5.198469579526135 2.2446907639130633 C 5.191411127026134 2.244555002127349 5.184546454168991 2.2469975539130633 5.179161236668992 2.2515600781987777 C 5.176645582383277 2.2534897521273494 5.174605674526134 2.255969435341635 5.1731981613118485 2.2588099896273492 C 5.171790648097563 2.2616493835559206 5.171051500597563 2.2647742253416348 5.171038736668992 2.2679443210559205 C 5.1710166898832775 2.2698635517702064 5.171392645597563 2.271766537484492 5.1721410759547055 2.2735337614130633 C 5.172889506311849 2.275300985341635 5.173995326668992 2.276894155698778 5.175390075954706 2.2782134817702064 C 5.176710562383278 2.2795792221273494 5.1782944498832775 2.280661835341635 5.180045428811849 2.281398662127349 C 5.18179640774042 2.282134328555921 5.183678507026134 2.2825079635559207 5.185578011668992 2.2824951996273493 C 5.195912152383277 2.2824951996273493 5.213592514168991 2.2695769435559208 5.238617936668992 2.2437392710559205 L 5.249629725954706 2.2324489960559206 C 5.238760660597563 2.2256086906987775 5.226906452026134 2.2204741103416348 5.214482508097563 2.217225110341635 C 5.201727862383278 2.213219557484492 5.1884754234547055 2.211019520341635 5.17511159024042 2.210692299627349 C 5.157049238883277 2.210133007484492 5.139467855561849 2.216563706770206 5.12602813499042 2.228643024627349 C 5.119681561597563 2.234216219984492 5.11462820624042 2.2411075810559207 5.111221049561848 2.248835559627349 C 5.107813892883278 2.256563538198778 5.106135088168991 2.264942477127349 5.106302063561849 2.273386396055921 C 5.106275491383277 2.2773037617702063 5.106778970347563 2.2812072031987776 5.107798924276135 2.284989967484492 C 5.08858340999042 2.2815402256987776 5.078975652847563 2.273107910341635 5.078975652847563 2.2596941817702065 C 5.079323876026135 2.2506387546273494 5.081940365347563 2.241816559270206 5.086585042918991 2.2340352042702065 C 5.091229836526135 2.2262538492702064 5.097754176633277 2.2197639717702065 5.10555943499042 2.2151596746273494 C 5.12395527299042 2.2023969064130635 5.145927679811849 2.195802596770206 5.168311897383277 2.196327078198778 C 5.187525090954706 2.1976614889130635 5.206351885597563 2.202374859627349 5.22392781524042 2.2102513639130636 L 5.2141344009547055 2.200724831770206 C 5.204672848811849 2.1914129656987775 5.19415885274042 2.183234768555921 5.182804758097563 2.176357563841635 C 5.17519281524042 2.1709910280916347 5.16635553524042 2.167623091484492 5.157102615311849 2.166563917484492 C 5.152425679811849 2.166426531198778 5.1478589782404205 2.1679984670202064 5.144257345704706 2.170984994234492 C 5.142617877097563 2.1722663766273493 5.141293793561848 2.173906309377349 5.140386626347563 2.1757790097702063 C 5.139479459133277 2.177651594127349 5.13901357574042 2.179707282841635 5.139024251026134 2.1817878031987776 C 5.139055580668992 2.183158184984492 5.139191226418991 2.184522764984492 5.13943025999042 2.1858722603416347 C 5.12692160999042 2.181161210341635 5.120667401026134 2.175088945377349 5.120667401026134 2.167654885270206 C 5.120741431811848 2.164973648020206 5.121497288454706 2.1623554181630635 5.1228636089904205 2.1600471196987776 C 5.1242298134904205 2.1577389372702065 5.126161460026134 2.1558163415202065 5.128476372526134 2.154461392484492 C 5.134125687311848 2.150703923984492 5.14080621149042 2.1488016344844922 5.147587570704705 2.1490194335202064 C 5.164900447383277 2.1490194335202064 5.190327353454705 2.1654268835202064 5.223869797383277 2.198241667484492 L 5.233384725954706 2.2076289567702063 C 5.2404594234547055 2.2145980617702063 5.248101535597563 2.220967262127349 5.256232158097563 2.2266704174844922 C 5.261975925954705 2.219781377127349 5.269061066668992 2.214129277484492 5.277054767026135 2.210061065341635 C 5.28504962774042 2.2059916928416348 5.293788277383277 2.203589753555921 5.302739272383278 2.2029991317702065 C 5.3111971155975635 2.202709042484492 5.319491348454706 2.2053801846273493 5.32619009024042 2.2105530567702063 C 5.3291199920261345 2.2126811517702065 5.331505686311849 2.2154729710559207 5.333148752026134 2.218699924270206 C 5.334792978097563 2.221926877484492 5.335648161311848 2.2254972964130637 5.3356470009547055 2.2291187710559206 C 5.335672528811848 2.232642775698778 5.334867240954706 2.2361238471273492 5.33329727774042 2.239278858198778 C 5.331727314526135 2.242433869270206 5.329434448811849 2.245174632841635 5.326607818811849 2.247278360341635 C 5.32013882774042 2.2522748581987777 5.312125401311849 2.254848530341635 5.303957647383277 2.2545537996273493 C 5.293738382026135 2.254230059984492 5.283755829526134 2.251396467841635 5.274890700954706 2.246303660341635 L 5.274890700954706 2.246303660341635 Z M 5.281852843811849 2.239910092484492 C 5.288211600954706 2.2425371410559207 5.294974162383277 2.2440560485559207 5.301845797383277 2.2444006746273493 C 5.306845776311849 2.2447174521273494 5.311841113811849 2.2437091017702064 5.316327054526134 2.2414765746273493 C 5.317861046668992 2.240600504984492 5.31912351524042 2.239318310341635 5.319975217383277 2.2377703939130633 C 5.320826919526135 2.236222477484492 5.321234204883277 2.234469177841635 5.32115414024042 2.2327042746273493 C 5.321229563454706 2.231527672484492 5.32100793524042 2.230349909984492 5.320508981668992 2.2292812210559205 C 5.320011188454706 2.2282125321273494 5.319249994168992 2.227286567127349 5.318299661668991 2.226589192484492 C 5.315674933811849 2.225037794984492 5.312638279168992 2.2243253356987776 5.309596983097563 2.2245469639130633 C 5.298684984526134 2.225841922484492 5.288715195954706 2.231357099984492 5.281818033097563 2.239910092484492 L 5.281852843811849 2.239910092484492 Z" fill="#fcf7ee" transform="matrix(1,0,0,1,0,0)" fill-rule="nonzero"></path></g></g></g><defs><clipPath id="SvgjsClipPath58434"><path d=" M 0 0 h 4.409729354428839 v 2.176123288939728 h -4.409729354428839 Z"></path></clipPath><clipPath id="SvgjsClipPath58430a9a78064-0270-4423-8970-cba1c648cc8f"><path d=" M 0 1.9583132246609296e-16 L 4.409729354428839 1.9583132246609296e-16 L 4.409729354428839 2.1761232889397277 L 0 2.1761232889397277 Z"></path></clipPath><clipPath id="SvgjsClipPath58435"><path d=" M -0.9573285143830098 2.062456674627349 h 0.3249 v 0.3249 h -0.3249 Z"></path></clipPath><clipPath id="SvgjsClipPath58436"><path d=" M 5.042157868811849 2.062456674627349 h 0.3249 v 0.3249 h -0.3249 Z"></path></clipPath></defs></svg>