<svg class="footer_socialMediaIcon__2n2Pr" focusable="false" xmlns="http://www.w3.org/2000/svg" fill="none" role="img" aria-label="YouTube logo" width="24" height="24" viewBox="0 0 24 24"><title>YouTube logo</title><path d="M21.58 7.2a2.5 2.5 0 00-1.76-1.77C18.26 5 12 5 12 5s-6.26 0-7.83.41c-.84.23-1.53.92-1.76 1.78C2 8.76 2 12 2 12s0 3.26.41 4.8c.23.87.9 1.54 1.76 1.77C5.76 19 12 19 12 19s6.26 0 7.82-.41a2.5 2.5 0 001.76-1.76c.42-1.57.42-4.81.42-4.81s.01-3.26-.42-4.83zM10 15V9l5.2 3-5.2 3z" fill="#97999E"></path></svg>